<?xml version="1.0" encoding="utf-8"?>
<svg xmlns="http://www.w3.org/2000/svg" xmlns:xlink="http://www.w3.org/1999/xlink" width="600" height="400" viewBox="0 0 2400 1600">
<defs>
  <clipPath id="clip240">
    <rect x="0" y="0" width="2400" height="1600"/>
  </clipPath>
</defs>
<path clip-path="url(#clip240)" d="M0 1600 L2400 1600 L2400 8.88178e-14 L0 8.88178e-14  Z" fill="#ffffff" fill-rule="evenodd" fill-opacity="1"/>
<defs>
  <clipPath id="clip241">
    <rect x="480" y="0" width="1681" height="1600"/>
  </clipPath>
</defs>
<path clip-path="url(#clip240)" d="M447.244 1552.76 L1952.76 1552.76 L1952.76 47.2441 L447.244 47.2441  Z" fill="#ffffff" fill-rule="evenodd" fill-opacity="1"/>
<defs>
  <clipPath id="clip242">
    <rect x="447" y="47" width="1507" height="1507"/>
  </clipPath>
</defs>
<polyline clip-path="url(#clip242)" style="stroke:#000000; stroke-linecap:round; stroke-linejoin:round; stroke-width:4; stroke-opacity:1; fill:none" points="662.317,591.139 669.877,596.497 677.441,601.845 685.009,607.172 692.586,612.467 700.174,617.719 707.775,622.918 715.393,628.054 723.031,633.115 730.69,638.091 738.374,642.972 746.086,647.746 753.828,652.404 761.603,656.934 769.413,661.326 777.263,665.57 785.153,669.654 793.088,673.568 801.069,677.302 809.1,680.845 817.183,684.186 825.321,687.315 833.517,690.221 841.774,692.893 850.094,695.321 858.479,697.495 866.931,699.414 875.446,701.089 884.022,702.53 892.655,703.749 901.343,704.755 910.084,705.559 918.874,706.172 927.711,706.605 936.592,706.868 945.515,706.971 954.476,706.926 963.472,706.743 972.502,706.433 981.562,706.005 990.649,705.472 999.762,704.843 1008.9,704.129 1018.05,703.34 1027.22,702.488 1036.4,701.583 1045.6,700.636 1054.8,699.656 1064.01,698.656 1073.22,697.644 "/>
<polyline clip-path="url(#clip242)" style="stroke:#000000; stroke-linecap:round; stroke-linejoin:round; stroke-width:4; stroke-opacity:1; fill:none" points="662.317,591.139 676.085,593.285 689.852,595.421 703.616,597.534 717.379,599.615 731.137,601.652 744.891,603.634 758.639,605.551 772.381,607.391 786.116,609.144 799.842,610.798 813.56,612.343 827.267,613.768 840.963,615.062 854.647,616.214 868.318,617.212 881.976,618.047 895.619,618.707 909.246,619.181 922.857,619.458 936.45,619.527 950.025,619.378 963.581,619 977.117,618.381 990.631,617.51 1004.12,616.378 1017.59,614.984 1031.04,613.338 1044.47,611.452 1057.88,609.337 1071.27,607.002 1084.65,604.461 1098.01,601.722 1111.35,598.798 1124.68,595.698 1137.99,592.435 1151.29,589.019 1164.58,585.461 1177.86,581.771 1191.12,577.961 1204.38,574.042 1217.63,570.025 1230.88,565.92 1244.11,561.739 1257.34,557.492 1270.57,553.19 1283.79,548.845 1297.01,544.467 1310.23,540.067 1323.45,535.656 "/>
<polyline clip-path="url(#clip242)" style="stroke:#000000; stroke-linecap:round; stroke-linejoin:round; stroke-width:4; stroke-opacity:1; fill:none" points="662.317,591.139 660.975,598.207 659.643,605.271 658.332,612.329 657.053,619.378 655.816,626.415 654.632,633.436 653.51,640.438 652.462,647.419 651.499,654.374 650.63,661.302 649.866,668.199 649.218,675.061 648.696,681.886 648.311,688.671 648.073,695.412 647.993,702.107 648.081,708.751 648.348,715.343 648.805,721.88 649.461,728.357 650.328,734.771 651.415,741.121 652.734,747.402 654.295,753.612 656.108,759.747 658.173,765.808 660.48,771.797 663.018,777.718 665.778,783.573 668.747,789.367 671.917,795.101 675.275,800.78 678.813,806.405 682.519,811.981 686.382,817.51 690.393,822.996 694.541,828.441 698.815,833.849 703.205,839.223 707.699,844.566 712.289,849.881 716.963,855.171 721.71,860.439 726.52,865.688 731.383,870.922 736.288,876.144 741.225,881.356 746.182,886.562 751.151,891.765 "/>
<polyline clip-path="url(#clip242)" style="stroke:#000000; stroke-linecap:round; stroke-linejoin:round; stroke-width:4; stroke-opacity:1; fill:none" points="662.317,591.139 665.141,601.977 667.974,612.81 670.825,623.631 673.705,634.435 676.622,645.216 679.586,655.968 682.605,666.685 685.69,677.362 688.85,687.993 692.094,698.572 695.431,709.094 698.87,719.552 702.422,729.941 706.095,740.255 709.898,750.489 713.842,760.636 717.935,770.691 722.187,780.648 726.607,790.501 731.204,800.245 735.987,809.873 740.967,819.381 746.152,828.761 751.552,838.01 757.175,847.12 763.022,856.092 769.084,864.932 775.351,873.645 781.814,882.237 788.463,890.714 795.29,899.081 802.285,907.345 809.439,915.51 816.742,923.584 824.185,931.571 831.759,939.477 839.454,947.309 847.261,955.071 855.17,962.77 863.173,970.412 871.26,978.001 879.422,985.545 887.649,993.048 895.932,1000.52 904.262,1007.96 912.629,1015.37 921.024,1022.77 929.438,1030.16 937.861,1037.54 "/>
<polyline clip-path="url(#clip242)" style="stroke:#000000; stroke-linecap:round; stroke-linejoin:round; stroke-width:4; stroke-opacity:1; fill:none" points="662.317,591.139 668.908,591.719 675.494,592.29 682.072,592.84 688.635,593.361 695.18,593.842 701.702,594.273 708.196,594.644 714.658,594.946 721.083,595.168 727.467,595.3 733.805,595.333 740.093,595.256 746.325,595.059 752.498,594.734 758.606,594.268 764.645,593.654 770.61,592.88 776.497,591.937 782.302,590.814 788.019,589.503 793.644,587.992 799.173,586.272 804.601,584.333 809.922,582.165 815.134,579.758 820.235,577.113 825.231,574.239 830.125,571.146 834.923,567.843 839.629,564.342 844.248,560.651 848.783,556.781 853.241,552.741 857.625,548.543 861.94,544.195 866.191,539.707 870.382,535.09 874.517,530.354 878.602,525.508 882.641,520.563 886.639,515.527 890.6,510.413 894.529,505.228 898.43,499.984 902.308,494.69 906.168,489.356 910.014,483.992 913.851,478.609 917.683,473.215 "/>
<polyline clip-path="url(#clip242)" style="stroke:#000000; stroke-linecap:round; stroke-linejoin:round; stroke-width:4; stroke-opacity:1; fill:none" points="662.317,591.139 670.677,600.062 679.043,608.975 687.42,617.87 695.815,626.736 704.232,635.565 712.677,644.347 721.157,653.073 729.676,661.733 738.241,670.318 746.857,678.819 755.53,687.226 764.266,695.53 773.07,703.721 781.948,711.791 790.906,719.729 799.949,727.527 809.083,735.174 818.314,742.662 827.647,749.982 837.088,757.123 846.644,764.076 856.318,770.833 866.118,777.384 876.049,783.718 886.116,789.829 896.32,795.714 906.654,801.384 917.114,806.847 927.693,812.114 938.386,817.193 949.187,822.094 960.091,826.826 971.091,831.399 982.182,835.822 993.359,840.104 1004.62,844.255 1015.95,848.283 1027.34,852.2 1038.81,856.013 1050.32,859.733 1061.89,863.368 1073.51,866.928 1085.16,870.422 1096.85,873.86 1108.57,877.252 1120.31,880.605 1132.07,883.931 1143.83,887.238 1155.61,890.536 "/>
<polyline clip-path="url(#clip242)" style="stroke:#000000; stroke-linecap:round; stroke-linejoin:round; stroke-width:4; stroke-opacity:1; fill:none" points="1223.63,1302.55 1217.36,1291 1211.11,1279.45 1204.88,1267.89 1198.68,1256.32 1192.53,1244.74 1186.42,1233.15 1180.39,1221.55 1174.42,1209.92 1168.54,1198.28 1162.76,1186.6 1157.08,1174.91 1151.52,1163.18 1146.09,1151.42 1140.8,1139.63 1135.65,1127.8 1130.67,1115.93 1125.85,1104.02 1121.22,1092.07 1116.78,1080.06 1112.54,1068.01 1108.51,1055.9 1104.7,1043.74 1101.14,1031.52 1097.81,1019.24 1094.74,1006.89 1091.93,994.484 1089.36,982.015 1087.02,969.487 1084.91,956.904 1083.01,944.268 1081.31,931.581 1079.81,918.847 1078.48,906.068 1077.33,893.247 1076.34,880.386 1075.49,867.488 1074.78,854.555 1074.21,841.591 1073.74,828.597 1073.39,815.578 1073.13,802.534 1072.95,789.469 1072.85,776.386 1072.82,763.286 1072.83,750.174 1072.89,737.051 1072.98,723.92 1073.1,710.783 1073.22,697.644 "/>
<polyline clip-path="url(#clip242)" style="stroke:#000000; stroke-linecap:round; stroke-linejoin:round; stroke-width:4; stroke-opacity:1; fill:none" points="1223.63,1302.55 1217.67,1306 1211.72,1309.44 1205.77,1312.86 1199.81,1316.24 1193.86,1319.58 1187.9,1322.87 1181.94,1326.09 1175.98,1329.23 1170.02,1332.29 1164.05,1335.25 1158.09,1338.09 1152.11,1340.82 1146.14,1343.41 1140.16,1345.87 1134.18,1348.16 1128.19,1350.3 1122.2,1352.26 1116.2,1354.03 1110.2,1355.61 1104.19,1356.97 1098.18,1358.12 1092.16,1359.04 1086.13,1359.71 1080.1,1360.14 1074.06,1360.3 1068.01,1360.2 1061.96,1359.84 1055.9,1359.25 1049.83,1358.42 1043.76,1357.38 1037.68,1356.13 1031.6,1354.68 1025.51,1353.04 1019.42,1351.23 1013.32,1349.25 1007.22,1347.12 1001.11,1344.85 995.004,1342.44 988.892,1339.92 982.777,1337.28 976.66,1334.55 970.54,1331.73 964.419,1328.83 958.295,1325.87 952.17,1322.85 946.044,1319.79 939.917,1316.7 933.79,1313.58 927.662,1310.45 "/>
<polyline clip-path="url(#clip242)" style="stroke:#000000; stroke-linecap:round; stroke-linejoin:round; stroke-width:4; stroke-opacity:1; fill:none" points="1223.63,1302.55 1211.83,1296.65 1200.03,1290.74 1188.25,1284.82 1176.49,1278.87 1164.76,1272.89 1153.07,1266.86 1141.42,1260.79 1129.82,1254.65 1118.28,1248.46 1106.8,1242.18 1095.4,1235.83 1084.07,1229.38 1072.83,1222.83 1061.69,1216.18 1050.64,1209.41 1039.7,1202.52 1028.88,1195.49 1018.18,1188.32 1007.61,1181.01 997.176,1173.53 986.887,1165.89 976.748,1158.08 966.768,1150.09 956.953,1141.9 947.31,1133.52 937.841,1124.94 928.536,1116.16 919.39,1107.21 910.395,1098.08 901.544,1088.79 892.83,1079.34 884.245,1069.74 875.783,1060 867.435,1050.12 859.196,1040.13 851.058,1030.01 843.013,1019.79 835.054,1009.47 827.174,999.062 819.367,988.568 811.624,978 803.939,967.365 796.304,956.673 788.713,945.931 781.157,935.147 773.63,924.331 766.125,913.489 758.634,902.631 751.151,891.765 "/>
<polyline clip-path="url(#clip242)" style="stroke:#000000; stroke-linecap:round; stroke-linejoin:round; stroke-width:4; stroke-opacity:1; fill:none" points="1223.63,1302.55 1231.21,1296.31 1238.79,1290.05 1246.35,1283.79 1253.88,1277.51 1261.38,1271.2 1268.83,1264.87 1276.22,1258.5 1283.54,1252.1 1290.79,1245.65 1297.95,1239.14 1305.03,1232.59 1311.99,1225.97 1318.85,1219.28 1325.58,1212.52 1332.18,1205.68 1338.64,1198.75 1344.95,1191.74 1351.1,1184.62 1357.08,1177.41 1362.88,1170.09 1368.49,1162.66 1373.91,1155.11 1379.12,1147.43 1384.11,1139.62 1388.88,1131.68 1393.42,1123.61 1397.74,1115.4 1401.86,1107.07 1405.78,1098.62 1409.52,1090.06 1413.07,1081.39 1416.46,1072.62 1419.68,1063.75 1422.76,1054.79 1425.69,1045.75 1428.49,1036.63 1431.17,1027.44 1433.74,1018.18 1436.2,1008.85 1438.57,999.471 1440.86,990.04 1443.07,980.564 1445.21,971.048 1447.3,961.498 1449.34,951.92 1451.34,942.319 1453.31,932.701 1455.27,923.073 1457.22,913.438 "/>
<polyline clip-path="url(#clip242)" style="stroke:#000000; stroke-linecap:round; stroke-linejoin:round; stroke-width:4; stroke-opacity:1; fill:none" points="1223.63,1302.55 1229.71,1306.54 1235.79,1310.52 1241.87,1314.47 1247.96,1318.39 1254.05,1322.27 1260.15,1326.09 1266.25,1329.85 1272.37,1333.53 1278.49,1337.13 1284.62,1340.62 1290.77,1344.01 1296.93,1347.28 1303.1,1350.41 1309.29,1353.41 1315.5,1356.25 1321.73,1358.93 1327.97,1361.43 1334.24,1363.75 1340.52,1365.88 1346.83,1367.79 1353.17,1369.49 1359.53,1370.96 1365.91,1372.19 1372.33,1373.17 1378.77,1373.88 1385.24,1374.34 1391.74,1374.54 1398.27,1374.51 1404.82,1374.24 1411.4,1373.76 1418,1373.07 1424.62,1372.19 1431.27,1371.12 1437.93,1369.87 1444.61,1368.46 1451.3,1366.9 1458.02,1365.2 1464.74,1363.37 1471.48,1361.41 1478.24,1359.35 1485,1357.19 1491.77,1354.94 1498.56,1352.62 1505.35,1350.23 1512.14,1347.79 1518.94,1345.3 1525.74,1342.78 1532.55,1340.24 1539.36,1337.68 "/>
<polyline clip-path="url(#clip242)" style="stroke:#000000; stroke-linecap:round; stroke-linejoin:round; stroke-width:4; stroke-opacity:1; fill:none" points="1223.63,1302.55 1229.28,1298.2 1234.93,1293.84 1240.56,1289.46 1246.15,1285.08 1251.71,1280.68 1257.22,1276.25 1262.66,1271.8 1268.04,1267.31 1273.34,1262.79 1278.55,1258.22 1283.66,1253.61 1288.66,1248.95 1293.54,1244.23 1298.29,1239.45 1302.9,1234.61 1307.36,1229.7 1311.67,1224.71 1315.8,1219.65 1319.76,1214.5 1323.52,1209.26 1327.09,1203.94 1330.45,1198.51 1333.59,1192.98 1336.5,1187.35 1339.18,1181.6 1341.61,1175.75 1343.82,1169.79 1345.8,1163.72 1347.58,1157.56 1349.16,1151.31 1350.55,1144.97 1351.76,1138.54 1352.81,1132.04 1353.69,1125.46 1354.43,1118.81 1355.02,1112.1 1355.49,1105.33 1355.83,1098.5 1356.07,1091.62 1356.21,1084.7 1356.26,1077.73 1356.23,1070.73 1356.12,1063.69 1355.96,1056.63 1355.75,1049.54 1355.5,1042.44 1355.22,1035.32 1354.92,1028.19 1354.61,1021.06 "/>
<polyline clip-path="url(#clip242)" style="stroke:#000000; stroke-linecap:round; stroke-linejoin:round; stroke-width:4; stroke-opacity:1; fill:none" points="1223.63,1302.55 1215.56,1299.56 1207.5,1296.55 1199.45,1293.53 1191.42,1290.49 1183.43,1287.41 1175.47,1284.3 1167.56,1281.13 1159.7,1277.91 1151.9,1274.62 1144.17,1271.27 1136.51,1267.83 1128.93,1264.3 1121.44,1260.68 1114.05,1256.95 1106.77,1253.11 1099.59,1249.15 1092.54,1245.06 1085.61,1240.83 1078.81,1236.46 1072.16,1231.94 1065.66,1227.25 1059.31,1222.4 1053.13,1217.37 1047.12,1212.15 1041.29,1206.74 1035.64,1201.14 1030.15,1195.36 1024.84,1189.39 1019.68,1183.26 1014.66,1176.97 1009.79,1170.52 1005.06,1163.93 1000.45,1157.21 995.959,1150.35 991.581,1143.37 987.307,1136.29 983.131,1129.09 979.044,1121.8 975.039,1114.42 971.108,1106.96 967.245,1099.43 963.442,1091.84 959.69,1084.19 955.984,1076.49 952.314,1068.75 948.675,1060.97 945.058,1053.18 941.455,1045.36 937.861,1037.54 "/>
<polyline clip-path="url(#clip242)" style="stroke:#000000; stroke-linecap:round; stroke-linejoin:round; stroke-width:4; stroke-opacity:1; fill:none" points="1223.63,1302.55 1218.99,1294.68 1214.37,1286.81 1209.77,1278.93 1205.2,1271.05 1200.67,1263.15 1196.2,1255.26 1191.79,1247.35 1187.46,1239.42 1183.22,1231.49 1179.07,1223.53 1175.03,1215.56 1171.11,1207.57 1167.32,1199.56 1163.67,1191.52 1160.17,1183.46 1156.84,1175.38 1153.67,1167.26 1150.7,1159.11 1147.91,1150.94 1145.33,1142.72 1142.97,1134.48 1140.84,1126.19 1138.94,1117.87 1137.29,1109.5 1135.91,1101.09 1134.78,1092.64 1133.9,1084.15 1133.26,1075.62 1132.84,1067.05 1132.64,1058.44 1132.65,1049.8 1132.85,1041.13 1133.24,1032.43 1133.8,1023.7 1134.52,1014.94 1135.39,1006.16 1136.41,997.358 1137.55,988.531 1138.81,979.685 1140.18,970.821 1141.65,961.941 1143.21,953.046 1144.84,944.14 1146.53,935.222 1148.28,926.295 1150.08,917.362 1151.9,908.423 1153.75,899.48 1155.61,890.536 "/>
<polyline clip-path="url(#clip242)" style="stroke:#000000; stroke-linecap:round; stroke-linejoin:round; stroke-width:4; stroke-opacity:1; fill:none" points="1223.63,1302.55 1236.06,1297.5 1248.5,1292.44 1260.92,1287.36 1273.31,1282.26 1285.69,1277.12 1298.03,1271.93 1310.33,1266.69 1322.59,1261.39 1334.79,1256.02 1346.94,1250.57 1359.02,1245.03 1371.03,1239.4 1382.96,1233.66 1394.81,1227.8 1406.57,1221.82 1418.23,1215.71 1429.78,1209.45 1441.23,1203.05 1452.55,1196.48 1463.76,1189.75 1474.83,1182.84 1485.77,1175.75 1496.57,1168.46 1507.21,1160.97 1517.71,1153.26 1528.04,1145.35 1538.23,1137.23 1548.27,1128.91 1558.18,1120.41 1567.95,1111.74 1577.61,1102.89 1587.15,1093.89 1596.57,1084.74 1605.89,1075.44 1615.12,1066.01 1624.25,1056.46 1633.3,1046.8 1642.28,1037.02 1651.18,1027.15 1660.01,1017.19 1668.79,1007.16 1677.51,997.049 1686.19,986.878 1694.84,976.655 1703.44,966.387 1712.03,956.085 1720.59,945.755 1729.14,935.408 1737.68,925.052 "/>
<polyline clip-path="url(#clip242)" style="stroke:#000000; stroke-linecap:round; stroke-linejoin:round; stroke-width:4; stroke-opacity:1; fill:none" points="1073.22,697.644 1080.12,697.1 1087,696.547 1093.88,695.976 1100.74,695.376 1107.57,694.74 1114.38,694.058 1121.15,693.321 1127.88,692.519 1134.56,691.644 1141.18,690.685 1147.75,689.635 1154.25,688.483 1160.68,687.221 1167.03,685.839 1173.3,684.328 1179.48,682.679 1185.57,680.883 1191.55,678.93 1197.42,676.812 1203.19,674.518 1208.83,672.041 1214.35,669.37 1219.73,666.496 1224.98,663.411 1230.09,660.105 1235.05,656.579 1239.88,652.84 1244.58,648.9 1249.15,644.765 1253.6,640.447 1257.94,635.954 1262.17,631.295 1266.3,626.479 1270.33,621.516 1274.27,616.415 1278.14,611.185 1281.92,605.836 1285.63,600.376 1289.28,594.814 1292.87,589.161 1296.4,583.425 1299.88,577.615 1303.33,571.74 1306.74,565.811 1310.12,559.835 1313.47,553.822 1316.81,547.782 1320.13,541.724 1323.45,535.656 "/>
<polyline clip-path="url(#clip242)" style="stroke:#000000; stroke-linecap:round; stroke-linejoin:round; stroke-width:4; stroke-opacity:1; fill:none" points="1073.22,697.644 1073.45,710.911 1073.67,724.175 1073.87,737.434 1074.04,750.685 1074.16,763.927 1074.23,777.155 1074.24,790.369 1074.17,803.564 1074.01,816.739 1073.76,829.892 1073.41,843.019 1072.93,856.118 1072.33,869.187 1071.59,882.223 1070.7,895.224 1069.65,908.186 1068.43,921.108 1067.03,933.987 1065.43,946.82 1063.64,959.605 1061.63,972.339 1059.39,985.02 1056.92,997.645 1054.21,1010.21 1051.24,1022.72 1048.01,1035.16 1044.54,1047.55 1040.83,1059.88 1036.9,1072.16 1032.76,1084.39 1028.41,1096.57 1023.87,1108.7 1019.15,1120.79 1014.26,1132.84 1009.21,1144.85 1004.01,1156.83 998.669,1168.77 993.202,1180.69 987.617,1192.57 981.926,1204.43 976.138,1216.27 970.266,1228.09 964.318,1239.89 958.307,1251.67 952.242,1263.44 946.134,1275.2 939.994,1286.96 933.833,1298.7 927.662,1310.45 "/>
<polyline clip-path="url(#clip242)" style="stroke:#000000; stroke-linecap:round; stroke-linejoin:round; stroke-width:4; stroke-opacity:1; fill:none" points="1073.22,697.644 1068.35,704.424 1063.47,711.194 1058.57,717.945 1053.67,724.668 1048.74,731.354 1043.78,737.992 1038.78,744.575 1033.75,751.091 1028.67,757.532 1023.54,763.889 1018.36,770.152 1013.11,776.311 1007.79,782.358 1002.4,788.283 996.933,794.076 991.379,799.728 985.735,805.23 979.994,810.572 974.151,815.745 968.201,820.74 962.137,825.547 955.955,830.156 949.648,834.559 943.211,838.746 936.638,842.707 929.929,846.444 923.091,849.964 916.127,853.278 909.045,856.395 901.85,859.323 894.547,862.074 887.142,864.655 879.64,867.076 872.049,869.347 864.372,871.477 856.616,873.476 848.786,875.352 840.889,877.116 832.929,878.777 824.912,880.343 816.845,881.825 808.732,883.232 800.58,884.573 792.394,885.858 784.179,887.096 775.942,888.296 767.687,889.468 759.422,890.621 751.151,891.765 "/>
<polyline clip-path="url(#clip242)" style="stroke:#000000; stroke-linecap:round; stroke-linejoin:round; stroke-width:4; stroke-opacity:1; fill:none" points="1073.22,697.644 1079.45,704.917 1085.68,712.179 1091.92,719.423 1098.17,726.637 1104.45,733.814 1110.76,740.943 1117.1,748.014 1123.47,755.019 1129.89,761.947 1136.36,768.788 1142.88,775.535 1149.46,782.176 1156.1,788.702 1162.81,795.104 1169.6,801.372 1176.47,807.497 1183.43,813.469 1190.47,819.278 1197.62,824.915 1204.86,830.37 1212.22,835.635 1219.68,840.698 1227.27,845.551 1234.97,850.184 1242.81,854.588 1250.78,858.763 1258.87,862.718 1267.07,866.462 1275.39,870.006 1283.82,873.358 1292.35,876.529 1300.98,879.528 1309.69,882.364 1318.5,885.047 1327.38,887.587 1336.34,889.993 1345.37,892.275 1354.46,894.441 1363.62,896.503 1372.82,898.469 1382.08,900.349 1391.38,902.152 1400.71,903.889 1410.08,905.568 1419.48,907.2 1428.89,908.793 1438.32,910.357 1447.77,911.902 1457.22,913.438 "/>
<polyline clip-path="url(#clip242)" style="stroke:#000000; stroke-linecap:round; stroke-linejoin:round; stroke-width:4; stroke-opacity:1; fill:none" points="1073.22,697.644 1076.48,706.404 1079.75,715.157 1083.04,723.895 1086.35,732.612 1089.69,741.3 1093.07,749.952 1096.51,758.561 1100,767.119 1103.56,775.62 1107.19,784.056 1110.91,792.419 1114.71,800.704 1118.62,808.903 1122.63,817.007 1126.76,825.011 1131.02,832.907 1135.4,840.688 1139.93,848.346 1144.61,855.875 1149.44,863.267 1154.44,870.515 1159.61,877.612 1164.96,884.55 1170.51,891.323 1176.25,897.923 1182.19,904.351 1188.32,910.613 1194.64,916.717 1201.12,922.67 1207.78,928.478 1214.59,934.15 1221.54,939.692 1228.64,945.112 1235.88,950.417 1243.23,955.614 1250.7,960.709 1258.28,965.712 1265.96,970.628 1273.73,975.464 1281.58,980.229 1289.51,984.929 1297.5,989.571 1305.55,994.163 1313.66,998.712 1321.8,1003.22 1329.97,1007.71 1338.17,1012.17 1346.39,1016.62 1354.61,1021.06 "/>
<polyline clip-path="url(#clip242)" style="stroke:#000000; stroke-linecap:round; stroke-linejoin:round; stroke-width:4; stroke-opacity:1; fill:none" points="1073.22,697.644 1086.03,695.571 1098.84,693.487 1111.63,691.384 1124.42,689.25 1137.18,687.077 1149.93,684.853 1162.64,682.569 1175.33,680.215 1187.98,677.78 1200.59,675.255 1213.15,672.63 1225.67,669.895 1238.13,667.039 1250.54,664.053 1262.88,660.927 1275.16,657.65 1287.37,654.212 1299.5,650.604 1311.55,646.816 1323.52,642.837 1335.39,638.657 1347.18,634.267 1358.86,629.656 1370.45,624.814 1381.93,619.733 1393.3,614.41 1404.57,608.858 1415.74,603.084 1426.82,597.1 1437.81,590.915 1448.71,584.54 1459.54,577.984 1470.29,571.258 1480.97,564.371 1491.58,557.334 1502.13,550.157 1512.62,542.849 1523.06,535.42 1533.45,527.882 1543.8,520.243 1554.1,512.513 1564.37,504.704 1574.61,496.824 1584.83,488.884 1595.02,480.894 1605.19,472.864 1615.35,464.804 1625.5,456.724 1635.65,448.634 "/>
<polyline clip-path="url(#clip242)" style="stroke:#000000; stroke-linecap:round; stroke-linejoin:round; stroke-width:4; stroke-opacity:1; fill:none" points="1073.22,697.644 1073.51,705.798 1073.8,713.948 1074.06,722.09 1074.3,730.22 1074.49,738.333 1074.63,746.426 1074.71,754.495 1074.72,762.535 1074.65,770.543 1074.48,778.514 1074.21,786.445 1073.84,794.331 1073.34,802.169 1072.7,809.953 1071.93,817.681 1071,825.348 1069.91,832.95 1068.64,840.483 1067.19,847.943 1065.55,855.326 1063.71,862.628 1061.65,869.845 1059.36,876.972 1056.84,884.006 1054.08,890.942 1051.07,897.782 1047.83,904.528 1044.37,911.185 1040.69,917.756 1036.81,924.247 1032.73,930.66 1028.47,937.001 1024.04,943.272 1019.44,949.478 1014.69,955.624 1009.8,961.713 1004.78,967.749 999.629,973.736 994.37,979.678 989.01,985.58 983.557,991.446 978.024,997.279 972.419,1003.08 966.752,1008.86 961.035,1014.62 955.277,1020.37 949.489,1026.1 943.68,1031.82 937.861,1037.54 "/>
<polyline clip-path="url(#clip242)" style="stroke:#000000; stroke-linecap:round; stroke-linejoin:round; stroke-width:4; stroke-opacity:1; fill:none" points="1073.22,697.644 1071.88,702.873 1070.54,708.098 1069.23,713.314 1067.94,718.517 1066.7,723.703 1065.51,728.867 1064.38,734.005 1063.31,739.114 1062.33,744.187 1061.44,749.222 1060.65,754.214 1059.97,759.159 1059.42,764.052 1058.99,768.888 1058.71,773.665 1058.57,778.377 1058.6,783.02 1058.8,787.589 1059.18,792.082 1059.75,796.492 1060.52,800.816 1061.51,805.05 1062.72,809.189 1064.16,813.228 1065.84,817.165 1067.76,820.998 1069.92,824.732 1072.29,828.372 1074.88,831.921 1077.67,835.384 1080.66,838.765 1083.82,842.068 1087.15,845.298 1090.65,848.459 1094.3,851.556 1098.09,854.592 1102.01,857.573 1106.05,860.501 1110.2,863.382 1114.46,866.221 1118.8,869.02 1123.22,871.785 1127.72,874.519 1132.28,877.228 1136.88,879.916 1141.53,882.586 1146.2,885.243 1150.9,887.891 1155.61,890.536 "/>
<polyline clip-path="url(#clip242)" style="stroke:#000000; stroke-linecap:round; stroke-linejoin:round; stroke-width:4; stroke-opacity:1; fill:none" points="1073.22,697.644 1078,689.32 1082.76,680.994 1087.51,672.664 1092.22,664.328 1096.88,655.985 1101.5,647.632 1106.05,639.269 1110.52,630.892 1114.91,622.5 1119.2,614.092 1123.38,605.665 1127.44,597.217 1131.37,588.747 1135.17,580.253 1138.81,571.732 1142.29,563.184 1145.59,554.606 1148.72,545.996 1151.64,537.352 1154.37,528.673 1156.87,519.957 1159.15,511.201 1161.19,502.405 1162.99,493.565 1164.52,484.681 1165.79,475.752 1166.82,466.78 1167.61,457.767 1168.17,448.715 1168.52,439.626 1168.66,430.501 1168.6,421.342 1168.36,412.152 1167.95,402.932 1167.38,393.684 1166.65,384.41 1165.79,375.111 1164.79,365.791 1163.68,356.449 1162.46,347.089 1161.14,337.712 1159.73,328.321 1158.25,318.916 1156.71,309.5 1155.11,300.075 1153.46,290.642 1151.79,281.203 1150.09,271.761 1148.38,262.317 "/>
<polyline clip-path="url(#clip242)" style="stroke:#000000; stroke-linecap:round; stroke-linejoin:round; stroke-width:4; stroke-opacity:1; fill:none" points="1323.45,535.656 1323.08,544.464 1322.72,553.268 1322.38,562.065 1322.07,570.851 1321.8,579.623 1321.58,588.376 1321.43,597.107 1321.35,605.812 1321.35,614.489 1321.44,623.132 1321.64,631.738 1321.95,640.305 1322.38,648.827 1322.95,657.302 1323.67,665.726 1324.54,674.094 1325.57,682.404 1326.78,690.652 1328.18,698.834 1329.77,706.947 1331.57,714.986 1333.59,722.948 1335.83,730.83 1338.31,738.628 1341.04,746.337 1344.02,753.959 1347.24,761.497 1350.68,768.955 1354.34,776.335 1358.21,783.643 1362.27,790.88 1366.52,798.052 1370.95,805.162 1375.54,812.213 1380.28,819.209 1385.17,826.154 1390.2,833.051 1395.35,839.904 1400.61,846.717 1405.97,853.494 1411.43,860.237 1416.98,866.951 1422.59,873.64 1428.27,880.306 1433.99,886.955 1439.76,893.588 1445.56,900.211 1451.38,906.826 1457.22,913.438 "/>
<polyline clip-path="url(#clip242)" style="stroke:#000000; stroke-linecap:round; stroke-linejoin:round; stroke-width:4; stroke-opacity:1; fill:none" points="1323.45,535.656 1320.8,545.773 1318.17,555.889 1315.55,566.004 1312.97,576.117 1310.43,586.227 1307.95,596.333 1305.53,606.435 1303.19,616.533 1300.94,626.624 1298.78,636.71 1296.74,646.788 1294.81,656.859 1293.02,666.921 1291.37,676.974 1289.87,687.017 1288.54,697.05 1287.38,707.071 1286.4,717.081 1285.63,727.077 1285.06,737.061 1284.71,747.03 1284.59,756.985 1284.72,766.924 1285.09,776.847 1285.73,786.753 1286.62,796.643 1287.77,806.516 1289.16,816.374 1290.79,826.217 1292.62,836.045 1294.67,845.861 1296.92,855.664 1299.35,865.455 1301.95,875.235 1304.72,885.004 1307.65,894.763 1310.71,904.513 1313.91,914.255 1317.23,923.989 1320.65,933.716 1324.18,943.437 1327.79,953.152 1331.48,962.862 1335.24,972.568 1339.05,982.27 1342.9,991.97 1346.79,1001.67 1350.69,1011.36 1354.61,1021.06 "/>
<polyline clip-path="url(#clip242)" style="stroke:#000000; stroke-linecap:round; stroke-linejoin:round; stroke-width:4; stroke-opacity:1; fill:none" points="1323.45,535.656 1330.7,537.049 1337.96,538.432 1345.2,539.794 1352.44,541.123 1359.66,542.411 1366.88,543.646 1374.07,544.817 1381.24,545.915 1388.39,546.928 1395.51,547.846 1402.6,548.658 1409.66,549.354 1416.69,549.923 1423.68,550.355 1430.62,550.639 1437.52,550.764 1444.38,550.721 1451.18,550.497 1457.93,550.084 1464.63,549.47 1471.26,548.644 1477.84,547.597 1484.35,546.317 1490.79,544.794 1497.16,543.018 1503.46,540.989 1509.7,538.717 1515.86,536.213 1521.97,533.486 1528.02,530.548 1534.01,527.41 1539.95,524.081 1545.84,520.573 1551.68,516.896 1557.47,513.06 1563.23,509.076 1568.95,504.955 1574.63,500.707 1580.28,496.343 1585.9,491.873 1591.49,487.308 1597.07,482.659 1602.62,477.935 1608.15,473.149 1613.66,468.309 1619.17,463.427 1624.67,458.514 1630.16,453.579 1635.65,448.634 "/>
<polyline clip-path="url(#clip242)" style="stroke:#000000; stroke-linecap:round; stroke-linejoin:round; stroke-width:4; stroke-opacity:1; fill:none" points="1323.45,535.656 1318.19,547.903 1312.92,560.143 1307.63,572.37 1302.32,584.577 1296.98,596.757 1291.58,608.904 1286.14,621.011 1280.64,633.071 1275.06,645.077 1269.41,657.024 1263.67,668.903 1257.84,680.709 1251.9,692.435 1245.85,704.074 1239.68,715.619 1233.37,727.064 1226.93,738.403 1220.34,749.627 1213.59,760.732 1206.68,771.709 1199.59,782.553 1192.32,793.256 1184.86,803.812 1177.2,814.215 1169.33,824.458 1161.25,834.54 1152.98,844.469 1144.51,854.251 1135.86,863.892 1127.03,873.4 1118.04,882.781 1108.89,892.041 1099.6,901.188 1090.16,910.228 1080.6,919.168 1070.91,928.014 1061.11,936.774 1051.21,945.453 1041.21,954.058 1031.12,962.597 1020.96,971.076 1010.72,979.501 1000.43,987.88 990.078,996.218 979.686,1004.52 969.261,1012.8 958.808,1021.06 948.339,1029.3 937.861,1037.54 "/>
<polyline clip-path="url(#clip242)" style="stroke:#000000; stroke-linecap:round; stroke-linejoin:round; stroke-width:4; stroke-opacity:1; fill:none" points="1323.45,535.656 1314.67,537.633 1305.89,539.6 1297.11,541.545 1288.34,543.458 1279.58,545.327 1270.82,547.142 1262.07,548.891 1253.34,550.565 1244.62,552.153 1235.91,553.642 1227.22,555.024 1218.55,556.286 1209.9,557.418 1201.27,558.409 1192.66,559.248 1184.08,559.924 1175.53,560.428 1167,560.746 1158.51,560.87 1150.04,560.788 1141.61,560.489 1133.21,559.962 1124.86,559.197 1116.53,558.182 1108.25,556.908 1100.01,555.374 1091.81,553.591 1083.64,551.569 1075.51,549.319 1067.42,546.853 1059.35,544.181 1051.31,541.313 1043.31,538.261 1035.33,535.036 1027.37,531.648 1019.44,528.109 1011.53,524.428 1003.64,520.617 995.764,516.688 987.908,512.649 980.068,508.513 972.24,504.291 964.425,499.992 956.619,495.629 948.822,491.211 941.031,486.75 933.246,482.256 925.464,477.741 917.683,473.215 "/>
<polyline clip-path="url(#clip242)" style="stroke:#000000; stroke-linecap:round; stroke-linejoin:round; stroke-width:4; stroke-opacity:1; fill:none" points="1323.45,535.656 1323,544.305 1322.54,552.949 1322.06,561.584 1321.55,570.205 1321,578.808 1320.4,587.386 1319.74,595.937 1319.01,604.455 1318.2,612.935 1317.3,621.373 1316.31,629.764 1315.2,638.104 1313.98,646.387 1312.62,654.61 1311.13,662.766 1309.49,670.853 1307.69,678.864 1305.72,686.796 1303.58,694.643 1301.24,702.401 1298.71,710.065 1295.97,717.631 1293.01,725.094 1289.82,732.449 1286.39,739.691 1282.73,746.821 1278.84,753.843 1274.73,760.762 1270.41,767.583 1265.9,774.31 1261.19,780.947 1256.31,787.501 1251.26,793.974 1246.05,800.373 1240.69,806.701 1235.19,812.963 1229.57,819.165 1223.82,825.31 1217.97,831.404 1212.02,837.451 1205.97,843.455 1199.85,849.423 1193.66,855.357 1187.41,861.263 1181.11,867.146 1174.77,873.009 1168.4,878.859 1162.01,884.7 1155.61,890.536 "/>
<polyline clip-path="url(#clip242)" style="stroke:#000000; stroke-linecap:round; stroke-linejoin:round; stroke-width:4; stroke-opacity:1; fill:none" points="1323.45,535.656 1329.65,546 1335.86,556.336 1342.08,566.656 1348.33,576.952 1354.6,587.216 1360.91,597.441 1367.27,607.617 1373.68,617.737 1380.15,627.793 1386.69,637.778 1393.31,647.682 1400,657.499 1406.79,667.22 1413.67,676.837 1420.66,686.342 1427.76,695.727 1434.98,704.984 1442.33,714.105 1449.82,723.083 1457.45,731.908 1465.22,740.574 1473.16,749.072 1481.26,757.394 1489.54,765.532 1497.99,773.479 1506.62,781.235 1515.43,788.806 1524.4,796.202 1533.53,803.43 1542.81,810.498 1552.23,817.414 1561.79,824.187 1571.48,830.823 1581.28,837.332 1591.2,843.721 1601.22,849.998 1611.34,856.171 1621.56,862.248 1631.85,868.237 1642.22,874.146 1652.66,879.983 1663.15,885.757 1673.7,891.474 1684.3,897.144 1694.93,902.773 1705.59,908.371 1716.28,913.945 1726.98,919.502 1737.68,925.052 "/>
<polyline clip-path="url(#clip242)" style="stroke:#000000; stroke-linecap:round; stroke-linejoin:round; stroke-width:4; stroke-opacity:1; fill:none" points="1323.45,535.656 1317.11,531.852 1310.77,528.042 1304.46,524.221 1298.17,520.381 1291.92,516.518 1285.71,512.626 1279.56,508.698 1273.48,504.728 1267.47,500.711 1261.54,496.641 1255.7,492.512 1249.97,488.318 1244.35,484.052 1238.85,479.71 1233.47,475.285 1228.24,470.771 1223.15,466.163 1218.22,461.454 1213.46,456.639 1208.87,451.711 1204.46,446.665 1200.25,441.494 1196.25,436.194 1192.45,430.757 1188.88,425.179 1185.53,419.459 1182.39,413.603 1179.45,407.616 1176.71,401.506 1174.15,395.277 1171.77,388.936 1169.56,382.488 1167.5,375.94 1165.59,369.297 1163.82,362.565 1162.17,355.751 1160.65,348.859 1159.24,341.897 1157.93,334.869 1156.71,327.783 1155.58,320.643 1154.51,313.456 1153.52,306.227 1152.58,298.963 1151.68,291.669 1150.83,284.352 1150,277.017 1149.18,269.67 1148.38,262.317 "/>
<polyline clip-path="url(#clip242)" style="stroke:#000000; stroke-linecap:round; stroke-linejoin:round; stroke-width:4; stroke-opacity:1; fill:none" points="927.662,1310.45 921.028,1303.18 914.404,1295.91 907.8,1288.63 901.227,1281.34 894.694,1274.03 888.212,1266.7 881.79,1259.35 875.439,1251.96 869.169,1244.54 862.99,1237.08 856.912,1229.58 850.945,1222.03 845.099,1214.44 839.385,1206.78 833.812,1199.07 828.391,1191.29 823.132,1183.44 818.044,1175.52 813.138,1167.53 808.425,1159.45 803.913,1151.29 799.614,1143.04 795.537,1134.7 791.693,1126.25 788.09,1117.71 784.73,1109.06 781.603,1100.32 778.697,1091.48 776.004,1082.55 773.513,1073.54 771.215,1064.44 769.098,1055.27 767.152,1046.03 765.369,1036.72 763.737,1027.34 762.247,1017.91 760.888,1008.42 759.65,998.877 758.524,989.289 757.499,979.658 756.564,969.989 755.711,960.285 754.928,950.552 754.206,940.793 753.534,931.013 752.903,921.216 752.302,911.406 751.721,901.587 751.151,891.765 "/>
<polyline clip-path="url(#clip242)" style="stroke:#000000; stroke-linecap:round; stroke-linejoin:round; stroke-width:4; stroke-opacity:1; fill:none" points="927.662,1310.45 940.443,1304.98 953.217,1299.5 965.978,1294.01 978.719,1288.48 991.434,1282.93 1004.12,1277.32 1016.76,1271.67 1029.36,1265.95 1041.9,1260.17 1054.38,1254.3 1066.8,1248.35 1079.15,1242.3 1091.42,1236.15 1103.6,1229.88 1115.69,1223.49 1127.68,1216.97 1139.57,1210.3 1151.34,1203.49 1163,1196.52 1174.53,1189.38 1185.93,1182.07 1197.19,1174.57 1208.3,1166.88 1219.27,1158.99 1230.08,1150.89 1240.73,1142.57 1251.22,1134.06 1261.58,1125.35 1271.79,1116.46 1281.88,1107.39 1291.83,1098.16 1301.68,1088.77 1311.4,1079.23 1321.03,1069.54 1330.55,1059.73 1339.98,1049.8 1349.33,1039.75 1358.6,1029.59 1367.79,1019.34 1376.92,1009 1385.99,998.579 1395.01,988.09 1403.98,977.539 1412.92,966.936 1421.82,956.289 1430.69,945.607 1439.54,934.899 1448.38,924.173 1457.22,913.438 "/>
<polyline clip-path="url(#clip242)" style="stroke:#000000; stroke-linecap:round; stroke-linejoin:round; stroke-width:4; stroke-opacity:1; fill:none" points="927.662,1310.45 938.221,1307.27 948.774,1304.08 959.315,1300.87 969.837,1297.63 980.335,1294.36 990.802,1291.04 1001.23,1287.66 1011.62,1284.23 1021.96,1280.72 1032.24,1277.13 1042.46,1273.45 1052.61,1269.66 1062.69,1265.77 1072.69,1261.76 1082.6,1257.63 1092.43,1253.36 1102.15,1248.94 1111.77,1244.37 1121.27,1239.63 1130.66,1234.72 1139.93,1229.64 1149.07,1224.36 1158.07,1218.88 1166.93,1213.19 1175.64,1207.28 1184.21,1201.16 1192.63,1194.83 1200.92,1188.29 1209.08,1181.57 1217.12,1174.67 1225.04,1167.59 1232.85,1160.35 1240.55,1152.96 1248.16,1145.42 1255.67,1137.74 1263.1,1129.94 1270.45,1122.02 1277.72,1113.98 1284.93,1105.85 1292.07,1097.63 1299.16,1089.33 1306.2,1080.96 1313.19,1072.52 1320.15,1064.02 1327.08,1055.49 1333.99,1046.91 1340.87,1038.31 1347.75,1029.69 1354.61,1021.06 "/>
<polyline clip-path="url(#clip242)" style="stroke:#000000; stroke-linecap:round; stroke-linejoin:round; stroke-width:4; stroke-opacity:1; fill:none" points="927.662,1310.45 931.158,1305 934.643,1299.56 938.106,1294.11 941.536,1288.66 944.922,1283.21 948.254,1277.76 951.52,1272.3 954.709,1266.84 957.81,1261.38 960.813,1255.92 963.706,1250.45 966.478,1244.97 969.119,1239.49 971.618,1234.01 973.963,1228.52 976.144,1223.02 978.149,1217.52 979.968,1212.01 981.589,1206.5 983.003,1200.97 984.197,1195.44 985.161,1189.9 985.884,1184.35 986.355,1178.79 986.563,1173.22 986.508,1167.64 986.202,1162.05 985.654,1156.45 984.876,1150.85 983.879,1145.23 982.674,1139.61 981.271,1133.98 979.682,1128.34 977.918,1122.7 975.989,1117.05 973.907,1111.39 971.682,1105.73 969.326,1100.07 966.849,1094.4 964.262,1088.72 961.577,1083.05 958.805,1077.37 955.955,1071.68 953.04,1066 950.07,1060.31 947.056,1054.62 944.009,1048.93 940.94,1043.23 937.861,1037.54 "/>
<polyline clip-path="url(#clip242)" style="stroke:#000000; stroke-linecap:round; stroke-linejoin:round; stroke-width:4; stroke-opacity:1; fill:none" points="927.662,1310.45 935.205,1303.45 942.739,1296.45 950.254,1289.43 957.739,1282.4 965.187,1275.35 972.586,1268.27 979.927,1261.16 987.2,1254.01 994.397,1246.82 1001.51,1239.59 1008.52,1232.3 1015.43,1224.95 1022.22,1217.55 1028.88,1210.07 1035.42,1202.52 1041.8,1194.89 1048.04,1187.18 1054.1,1179.38 1060,1171.48 1065.71,1163.49 1071.23,1155.39 1076.55,1147.18 1081.65,1138.86 1086.53,1130.41 1091.19,1121.84 1095.61,1113.15 1099.81,1104.33 1103.79,1095.4 1107.58,1086.36 1111.17,1077.22 1114.58,1067.97 1117.82,1058.63 1120.89,1049.21 1123.8,1039.7 1126.58,1030.11 1129.21,1020.44 1131.73,1010.71 1134.12,1000.92 1136.41,991.066 1138.61,981.162 1140.72,971.211 1142.75,961.218 1144.71,951.188 1146.61,941.128 1148.47,931.041 1150.29,920.933 1152.08,910.809 1153.85,900.675 1155.61,890.536 "/>
<polyline clip-path="url(#clip242)" style="stroke:#000000; stroke-linecap:round; stroke-linejoin:round; stroke-width:4; stroke-opacity:1; fill:none" points="751.151,891.765 762.777,897.62 774.406,903.465 786.039,909.289 797.679,915.08 809.328,920.829 820.989,926.524 832.663,932.154 844.354,937.71 856.063,943.179 867.793,948.553 879.545,953.818 891.323,958.966 903.129,963.986 914.964,968.865 926.832,973.595 938.734,978.164 950.673,982.561 962.651,986.776 974.67,990.797 986.733,994.615 998.842,998.219 1011,1001.6 1023.21,1004.74 1035.47,1007.64 1047.78,1010.27 1060.15,1012.66 1072.58,1014.79 1085.05,1016.69 1097.57,1018.36 1110.14,1019.82 1122.75,1021.08 1135.41,1022.14 1148.1,1023.02 1160.83,1023.73 1173.59,1024.28 1186.39,1024.67 1199.21,1024.93 1212.07,1025.06 1224.94,1025.07 1237.85,1024.98 1250.77,1024.79 1263.71,1024.51 1276.67,1024.15 1289.64,1023.74 1302.62,1023.27 1315.61,1022.75 1328.61,1022.21 1341.61,1021.64 1354.61,1021.06 "/>
<polyline clip-path="url(#clip242)" style="stroke:#000000; stroke-linecap:round; stroke-linejoin:round; stroke-width:4; stroke-opacity:1; fill:none" points="751.151,891.765 752.936,897.333 754.729,902.893 756.535,908.435 758.361,913.952 760.214,919.433 762.101,924.872 764.028,930.259 766.003,935.585 768.031,940.842 770.121,946.022 772.278,951.114 774.509,956.112 776.821,961.006 779.221,965.788 781.715,970.448 784.311,974.979 787.015,979.372 789.833,983.617 792.773,987.707 795.841,991.633 799.044,995.386 802.389,998.957 805.883,1002.34 809.532,1005.52 813.342,1008.5 817.314,1011.26 821.441,1013.83 825.717,1016.21 830.135,1018.41 834.688,1020.43 839.369,1022.29 844.171,1024 849.088,1025.56 854.113,1026.97 859.24,1028.26 864.461,1029.43 869.769,1030.49 875.159,1031.44 880.623,1032.3 886.154,1033.07 891.746,1033.76 897.393,1034.39 903.086,1034.95 908.82,1035.46 914.588,1035.93 920.382,1036.36 926.197,1036.77 932.026,1037.16 937.861,1037.54 "/>
<polyline clip-path="url(#clip242)" style="stroke:#000000; stroke-linecap:round; stroke-linejoin:round; stroke-width:4; stroke-opacity:1; fill:none" points="751.151,891.765 757.606,884.439 764.052,877.11 770.477,869.772 776.871,862.422 783.225,855.056 789.528,847.67 795.769,840.259 801.94,832.82 808.028,825.349 814.025,817.841 819.921,810.292 825.704,802.699 831.364,795.057 836.892,787.363 842.278,779.611 847.511,771.799 852.58,763.922 857.477,755.976 862.189,747.957 866.709,739.861 871.024,731.684 875.126,723.422 879.003,715.071 882.646,706.626 886.044,698.084 889.199,689.445 892.119,680.713 894.815,671.892 897.296,662.985 899.574,653.997 901.659,644.933 903.56,635.795 905.287,626.588 906.852,617.317 908.263,607.984 909.533,598.595 910.669,589.153 911.683,579.663 912.585,570.127 913.386,560.552 914.094,550.94 914.721,541.295 915.277,531.622 915.771,521.925 916.215,512.207 916.617,502.473 916.99,492.727 917.341,482.973 917.683,473.215 "/>
<polyline clip-path="url(#clip242)" style="stroke:#000000; stroke-linecap:round; stroke-linejoin:round; stroke-width:4; stroke-opacity:1; fill:none" points="751.151,891.765 759.415,895.03 767.679,898.284 775.943,901.516 784.207,904.715 792.471,907.87 800.735,910.971 808.998,914.005 817.262,916.963 825.525,919.834 833.788,922.605 842.05,925.267 850.312,927.808 858.574,930.217 866.835,932.484 875.096,934.597 883.356,936.546 891.616,938.32 899.875,939.906 908.133,941.296 916.391,942.477 924.648,943.438 932.905,944.17 941.161,944.66 949.416,944.897 957.67,944.872 965.924,944.584 974.176,944.044 982.428,943.263 990.679,942.251 998.93,941.02 1007.18,939.58 1015.43,937.943 1023.68,936.12 1031.93,934.121 1040.17,931.957 1048.42,929.64 1056.67,927.181 1064.91,924.589 1073.16,921.877 1081.41,919.056 1089.65,916.136 1097.9,913.128 1106.14,910.043 1114.39,906.892 1122.63,903.687 1130.88,900.437 1139.12,897.155 1147.36,893.851 1155.61,890.536 "/>
<polyline clip-path="url(#clip242)" style="stroke:#000000; stroke-linecap:round; stroke-linejoin:round; stroke-width:4; stroke-opacity:1; fill:none" points="751.151,891.765 762.04,880.675 772.92,869.579 783.781,858.471 794.614,847.346 805.411,836.198 816.161,825.02 826.855,813.807 837.485,802.553 848.04,791.253 858.511,779.899 868.89,768.487 879.167,757.011 889.333,745.464 899.378,733.842 909.293,722.137 919.069,710.345 928.697,698.459 938.167,686.473 947.47,674.382 956.596,662.18 965.538,649.861 974.284,637.418 982.826,624.847 991.155,612.142 999.262,599.296 1007.15,586.31 1014.82,573.189 1022.28,559.939 1029.56,546.567 1036.64,533.077 1043.55,519.477 1050.3,505.771 1056.88,491.965 1063.32,478.066 1069.62,464.078 1075.79,450.009 1081.84,435.864 1087.77,421.649 1093.61,407.369 1099.35,393.031 1105.01,378.64 1110.59,364.202 1116.11,349.723 1121.57,335.209 1126.99,320.666 1132.37,306.099 1137.72,291.515 1143.06,276.919 1148.38,262.317 "/>
<polyline clip-path="url(#clip242)" style="stroke:#000000; stroke-linecap:round; stroke-linejoin:round; stroke-width:4; stroke-opacity:1; fill:none" points="1457.22,913.438 1455.66,922.722 1454.12,932.003 1452.6,941.28 1451.11,950.551 1449.66,959.814 1448.27,969.066 1446.94,978.306 1445.69,987.531 1444.52,996.739 1443.46,1005.93 1442.49,1015.1 1441.65,1024.24 1440.94,1033.36 1440.36,1042.46 1439.94,1051.52 1439.68,1060.56 1439.59,1069.56 1439.68,1078.52 1439.97,1087.45 1440.46,1096.33 1441.17,1105.18 1442.1,1113.98 1443.28,1122.74 1444.69,1131.45 1446.37,1140.1 1448.3,1148.71 1450.49,1157.27 1452.91,1165.79 1455.55,1174.26 1458.41,1182.69 1461.48,1191.07 1464.73,1199.43 1468.18,1207.74 1471.79,1216.03 1475.57,1224.28 1479.49,1232.5 1483.56,1240.69 1487.76,1248.86 1492.07,1257.01 1496.49,1265.14 1501.01,1273.25 1505.62,1281.34 1510.3,1289.41 1515.04,1297.48 1519.84,1305.53 1524.68,1313.58 1529.56,1321.62 1534.45,1329.65 1539.36,1337.68 "/>
<polyline clip-path="url(#clip242)" style="stroke:#000000; stroke-linecap:round; stroke-linejoin:round; stroke-width:4; stroke-opacity:1; fill:none" points="1457.22,913.438 1444.13,907.003 1431.04,900.56 1417.97,894.099 1404.92,887.613 1391.9,881.093 1378.91,874.531 1365.97,867.918 1353.07,861.245 1340.23,854.504 1327.45,847.686 1314.74,840.784 1302.11,833.788 1289.56,826.69 1277.1,819.482 1264.74,812.155 1252.48,804.7 1240.33,797.109 1228.3,789.374 1216.39,781.486 1204.62,773.436 1192.99,765.217 1181.5,756.819 1170.16,748.234 1158.98,739.453 1147.97,730.469 1137.13,721.281 1126.44,711.898 1115.91,702.328 1105.52,692.579 1095.28,682.66 1085.16,672.58 1075.17,662.347 1065.29,651.97 1055.53,641.456 1045.87,630.815 1036.31,620.055 1026.84,609.185 1017.45,598.212 1008.14,587.146 998.893,575.995 989.713,564.768 980.588,553.473 971.511,542.118 962.476,530.712 953.476,519.263 944.503,507.781 935.552,496.273 926.614,484.748 917.683,473.215 "/>
<polyline clip-path="url(#clip242)" style="stroke:#000000; stroke-linecap:round; stroke-linejoin:round; stroke-width:4; stroke-opacity:1; fill:none" points="1457.22,913.438 1462.8,916.962 1468.39,920.476 1473.98,923.967 1479.57,927.426 1485.16,930.84 1490.76,934.2 1496.36,937.495 1501.96,940.712 1507.56,943.842 1513.17,946.873 1518.78,949.794 1524.4,952.595 1530.02,955.265 1535.65,957.792 1541.29,960.166 1546.93,962.375 1552.58,964.409 1558.23,966.256 1563.9,967.906 1569.57,969.349 1575.26,970.571 1580.95,971.564 1586.65,972.316 1592.36,972.815 1598.09,973.052 1603.82,973.027 1609.57,972.749 1615.32,972.231 1621.09,971.482 1626.86,970.514 1632.64,969.337 1638.43,967.964 1644.23,966.404 1650.04,964.669 1655.85,962.769 1661.67,960.716 1667.49,958.521 1673.32,956.194 1679.16,953.746 1685,951.189 1690.84,948.534 1696.69,945.79 1702.54,942.97 1708.39,940.084 1714.25,937.143 1720.1,934.159 1725.96,931.142 1731.82,928.102 1737.68,925.052 "/>
<polyline clip-path="url(#clip242)" style="stroke:#000000; stroke-linecap:round; stroke-linejoin:round; stroke-width:4; stroke-opacity:1; fill:none" points="1539.36,1337.68 1532.75,1332.88 1526.14,1328.07 1519.56,1323.25 1513,1318.41 1506.49,1313.55 1500.02,1308.67 1493.6,1303.75 1487.26,1298.79 1480.99,1293.79 1474.8,1288.73 1468.71,1283.63 1462.72,1278.46 1456.85,1273.22 1451.1,1267.92 1445.48,1262.53 1440.01,1257.07 1434.68,1251.51 1429.52,1245.86 1424.53,1240.11 1419.72,1234.26 1415.09,1228.29 1410.67,1222.21 1406.46,1216.01 1402.46,1209.68 1398.69,1203.22 1395.15,1196.63 1391.82,1189.91 1388.7,1183.06 1385.78,1176.1 1383.06,1169.03 1380.51,1161.86 1378.13,1154.59 1375.91,1147.22 1373.85,1139.76 1371.92,1132.22 1370.13,1124.6 1368.47,1116.92 1366.91,1109.16 1365.46,1101.35 1364.11,1093.47 1362.84,1085.55 1361.64,1077.59 1360.52,1069.58 1359.45,1061.55 1358.42,1053.48 1357.44,1045.4 1356.48,1037.29 1355.54,1029.18 1354.61,1021.06 "/>
<polyline clip-path="url(#clip242)" style="stroke:#000000; stroke-linecap:round; stroke-linejoin:round; stroke-width:4; stroke-opacity:1; fill:none" points="1539.36,1337.68 1525.61,1334.5 1511.87,1331.31 1498.14,1328.1 1484.43,1324.86 1470.73,1321.58 1457.06,1318.25 1443.42,1314.86 1429.81,1311.41 1416.25,1307.87 1402.72,1304.25 1389.25,1300.53 1375.82,1296.7 1362.46,1292.75 1349.16,1288.68 1335.93,1284.47 1322.78,1280.11 1309.7,1275.59 1296.7,1270.91 1283.8,1266.05 1270.98,1261 1258.27,1255.76 1245.65,1250.31 1233.15,1244.65 1220.75,1238.76 1208.48,1232.63 1196.32,1226.27 1184.28,1219.68 1172.34,1212.88 1160.5,1205.87 1148.77,1198.67 1137.12,1191.28 1125.57,1183.71 1114.09,1175.98 1102.7,1168.09 1091.38,1160.05 1080.13,1151.87 1068.94,1143.57 1057.81,1135.15 1046.73,1126.62 1035.71,1117.99 1024.72,1109.27 1013.78,1100.48 1002.87,1091.61 991.991,1082.69 981.135,1073.72 970.3,1064.71 959.479,1055.67 948.667,1046.61 937.861,1037.54 "/>
<polyline clip-path="url(#clip242)" style="stroke:#000000; stroke-linecap:round; stroke-linejoin:round; stroke-width:4; stroke-opacity:1; fill:none" points="1539.36,1337.68 1529.03,1330.7 1518.71,1323.71 1508.41,1316.71 1498.13,1309.68 1487.88,1302.63 1477.68,1295.54 1467.53,1288.4 1457.43,1281.22 1447.4,1273.98 1437.45,1266.68 1427.58,1259.3 1417.8,1251.85 1408.12,1244.31 1398.55,1236.67 1389.09,1228.94 1379.76,1221.1 1370.57,1213.15 1361.51,1205.07 1352.61,1196.87 1343.86,1188.53 1335.28,1180.04 1326.88,1171.41 1318.65,1162.62 1310.62,1153.67 1302.79,1144.54 1295.16,1135.25 1287.72,1125.78 1280.46,1116.17 1273.38,1106.4 1266.46,1096.49 1259.7,1086.44 1253.09,1076.27 1246.63,1065.97 1240.29,1055.56 1234.08,1045.04 1227.99,1034.42 1222.01,1023.71 1216.12,1012.91 1210.33,1002.04 1204.62,991.092 1198.99,980.081 1193.42,969.013 1187.91,957.895 1182.45,946.734 1177.03,935.537 1171.65,924.311 1166.29,913.065 1160.94,901.804 1155.61,890.536 "/>
<polyline clip-path="url(#clip242)" style="stroke:#000000; stroke-linecap:round; stroke-linejoin:round; stroke-width:4; stroke-opacity:1; fill:none" points="1539.36,1337.68 1546.37,1330.69 1553.37,1323.69 1560.36,1316.68 1567.31,1309.65 1574.22,1302.61 1581.09,1295.54 1587.89,1288.45 1594.63,1281.32 1601.29,1274.15 1607.85,1266.94 1614.32,1259.68 1620.68,1252.37 1626.93,1245.01 1633.04,1237.58 1639.01,1230.09 1644.84,1222.52 1650.51,1214.88 1656.01,1207.15 1661.33,1199.35 1666.47,1191.45 1671.4,1183.45 1676.13,1175.36 1680.64,1167.16 1684.93,1158.86 1688.98,1150.43 1692.79,1141.9 1696.37,1133.26 1699.73,1124.51 1702.89,1115.66 1705.85,1106.71 1708.63,1097.68 1711.22,1088.56 1713.65,1079.36 1715.92,1070.09 1718.04,1060.74 1720.02,1051.32 1721.87,1041.85 1723.6,1032.32 1725.23,1022.73 1726.76,1013.1 1728.2,1003.42 1729.55,993.71 1730.84,983.963 1732.07,974.188 1733.26,964.39 1734.4,954.572 1735.51,944.74 1736.6,934.898 1737.68,925.052 "/>
<polyline clip-path="url(#clip242)" style="stroke:#000000; stroke-linecap:round; stroke-linejoin:round; stroke-width:4; stroke-opacity:1; fill:none" points="1354.61,1021.06 1363.3,1010.83 1371.98,1000.59 1380.64,990.343 1389.27,980.082 1397.86,969.801 1406.4,959.497 1414.88,949.163 1423.3,938.795 1431.63,928.389 1439.88,917.94 1448.02,907.441 1456.06,896.89 1463.98,886.281 1471.78,875.609 1479.43,864.869 1486.94,854.057 1494.29,843.167 1501.47,832.196 1508.48,821.137 1515.29,809.986 1521.91,798.739 1528.33,787.39 1534.53,775.935 1540.5,764.369 1546.23,752.686 1551.73,740.888 1557.01,728.979 1562.06,716.964 1566.91,704.847 1571.56,692.633 1576.03,680.328 1580.32,667.935 1584.44,655.46 1588.4,642.908 1592.22,630.284 1595.9,617.592 1599.45,604.836 1602.88,592.023 1606.2,579.157 1609.43,566.243 1612.56,553.284 1615.62,540.288 1618.61,527.257 1621.54,514.197 1624.42,501.114 1627.26,488.011 1630.07,474.893 1632.86,461.766 1635.65,448.634 "/>
<polyline clip-path="url(#clip242)" style="stroke:#000000; stroke-linecap:round; stroke-linejoin:round; stroke-width:4; stroke-opacity:1; fill:none" points="1354.61,1021.06 1346.24,1024.68 1337.86,1028.3 1329.49,1031.89 1321.11,1035.45 1312.73,1038.96 1304.35,1042.42 1295.96,1045.81 1287.58,1049.13 1279.19,1052.36 1270.79,1055.49 1262.39,1058.51 1253.99,1061.41 1245.58,1064.18 1237.16,1066.81 1228.74,1069.28 1220.32,1071.59 1211.88,1073.72 1203.44,1075.67 1194.99,1077.42 1186.53,1078.96 1178.07,1080.28 1169.59,1081.38 1161.11,1082.23 1152.61,1082.83 1144.11,1083.16 1135.59,1083.24 1127.07,1083.06 1118.53,1082.64 1109.99,1081.99 1101.44,1081.12 1092.87,1080.04 1084.31,1078.77 1075.73,1077.31 1067.15,1075.67 1058.56,1073.87 1049.96,1071.92 1041.36,1069.82 1032.75,1067.59 1024.14,1065.25 1015.53,1062.79 1006.91,1060.23 998.283,1057.59 989.657,1054.87 981.028,1052.08 972.397,1049.24 963.765,1046.35 955.131,1043.43 946.496,1040.49 937.861,1037.54 "/>
<polyline clip-path="url(#clip242)" style="stroke:#000000; stroke-linecap:round; stroke-linejoin:round; stroke-width:4; stroke-opacity:1; fill:none" points="1354.61,1021.06 1363.23,1022.29 1371.85,1023.51 1380.46,1024.71 1389.06,1025.88 1397.65,1027.01 1406.23,1028.08 1414.79,1029.09 1423.33,1030.02 1431.85,1030.87 1440.35,1031.62 1448.82,1032.27 1457.26,1032.8 1465.67,1033.2 1474.05,1033.47 1482.38,1033.58 1490.68,1033.54 1498.94,1033.32 1507.15,1032.93 1515.31,1032.34 1523.42,1031.55 1531.48,1030.55 1539.48,1029.32 1547.42,1027.86 1555.3,1026.16 1563.12,1024.2 1570.87,1021.98 1578.57,1019.53 1586.2,1016.83 1593.78,1013.92 1601.3,1010.79 1608.78,1007.46 1616.2,1003.93 1623.58,1000.23 1630.92,996.355 1638.22,992.321 1645.48,988.139 1652.71,983.818 1659.9,979.369 1667.06,974.804 1674.2,970.132 1681.32,965.364 1688.41,960.511 1695.48,955.584 1702.54,950.593 1709.58,945.548 1716.62,940.462 1723.64,935.343 1730.66,930.203 1737.68,925.052 "/>
<polyline clip-path="url(#clip242)" style="stroke:#000000; stroke-linecap:round; stroke-linejoin:round; stroke-width:4; stroke-opacity:1; fill:none" points="1635.65,448.634 1634.51,459.045 1633.39,469.455 1632.28,479.86 1631.21,490.258 1630.19,500.647 1629.21,511.024 1628.3,521.388 1627.47,531.735 1626.72,542.065 1626.07,552.373 1625.52,562.659 1625.1,572.919 1624.8,583.152 1624.64,593.354 1624.63,603.525 1624.78,613.661 1625.11,623.761 1625.61,633.821 1626.31,643.84 1627.22,653.816 1628.33,663.745 1629.68,673.626 1631.25,683.457 1633.08,693.235 1635.16,702.958 1637.5,712.625 1640.09,722.24 1642.91,731.805 1645.96,741.321 1649.22,750.791 1652.68,760.218 1656.34,769.603 1660.18,778.949 1664.2,788.259 1668.37,797.534 1672.69,806.777 1677.16,815.99 1681.75,825.175 1686.46,834.335 1691.27,843.472 1696.19,852.589 1701.19,861.687 1706.26,870.769 1711.4,879.837 1716.59,888.894 1721.83,897.941 1727.09,906.982 1732.38,916.018 1737.68,925.052 "/>
<polyline clip-path="url(#clip242)" style="stroke:#000000; stroke-linecap:round; stroke-linejoin:round; stroke-width:4; stroke-opacity:1; fill:none" points="1635.65,448.634 1624.53,447.904 1613.41,447.165 1602.3,446.405 1591.21,445.614 1580.13,444.782 1569.07,443.899 1558.03,442.955 1547.02,441.939 1536.04,440.841 1525.1,439.651 1514.2,438.358 1503.34,436.952 1492.52,435.424 1481.76,433.762 1471.05,431.957 1460.4,429.999 1449.82,427.876 1439.3,425.579 1428.85,423.098 1418.47,420.422 1408.17,417.542 1397.96,414.446 1387.83,411.124 1377.79,407.567 1367.85,403.765 1358,399.717 1348.24,395.434 1338.57,390.925 1328.97,386.201 1319.46,381.272 1310.02,376.148 1300.65,370.84 1291.35,365.358 1282.11,359.712 1272.93,353.912 1263.81,347.969 1254.73,341.893 1245.7,335.694 1236.72,329.382 1227.77,322.967 1218.86,316.461 1209.98,309.872 1201.13,303.212 1192.31,296.49 1183.5,289.717 1174.7,282.903 1165.92,276.058 1157.15,269.193 1148.38,262.317 "/>
<polyline clip-path="url(#clip242)" style="stroke:#000000; stroke-linecap:round; stroke-linejoin:round; stroke-width:4; stroke-opacity:1; fill:none" points="937.861,1037.54 934.161,1026.14 930.472,1014.74 926.805,1003.34 923.171,991.941 919.581,980.538 916.046,969.133 912.576,957.725 909.183,946.315 905.878,934.901 902.671,923.484 899.575,912.064 896.598,900.638 893.753,889.208 891.051,877.773 888.502,866.333 886.118,854.887 883.909,843.434 881.886,831.975 880.061,820.508 878.444,809.035 877.046,797.553 875.878,786.063 874.952,774.565 874.277,763.057 873.865,751.54 873.716,740.014 873.819,728.479 874.163,716.935 874.738,705.383 875.531,693.823 876.533,682.255 877.732,670.681 879.117,659.1 880.678,647.512 882.404,635.919 884.282,624.32 886.303,612.716 888.456,601.108 890.73,589.495 893.112,577.878 895.594,566.258 898.163,554.634 900.809,543.008 903.521,531.379 906.288,519.749 909.098,508.117 911.942,496.484 914.807,484.849 917.683,473.215 "/>
<polyline clip-path="url(#clip242)" style="stroke:#000000; stroke-linecap:round; stroke-linejoin:round; stroke-width:4; stroke-opacity:1; fill:none" points="917.683,473.215 919.68,483.361 921.687,493.502 923.713,503.632 925.768,513.746 927.861,523.838 930.001,533.903 932.199,543.935 934.463,553.929 936.803,563.88 939.229,573.782 941.751,583.629 944.377,593.417 947.118,603.139 949.982,612.791 952.98,622.367 956.121,631.862 959.414,641.269 962.87,650.584 966.497,659.801 970.304,668.916 974.303,677.921 978.501,686.812 982.91,695.584 987.537,704.231 992.393,712.748 997.477,721.134 1002.78,729.396 1008.29,737.538 1014.01,745.566 1019.91,753.486 1025.99,761.302 1032.25,769.02 1038.67,776.646 1045.24,784.185 1051.95,791.643 1058.8,799.024 1065.77,806.335 1072.85,813.581 1080.04,820.767 1087.33,827.899 1094.7,834.982 1102.15,842.021 1109.66,849.022 1117.23,855.991 1124.85,862.932 1132.51,869.852 1140.19,876.756 1147.89,883.648 1155.61,890.536 "/>
<polyline clip-path="url(#clip242)" style="stroke:#000000; stroke-linecap:round; stroke-linejoin:round; stroke-width:4; stroke-opacity:1; fill:none" points="917.683,473.215 924.611,471.339 931.532,469.456 938.438,467.556 945.321,465.631 952.175,463.675 958.992,461.677 965.765,459.632 972.486,457.529 979.147,455.362 985.742,453.122 992.263,450.801 998.703,448.391 1005.05,445.884 1011.31,443.272 1017.46,440.546 1023.5,437.699 1029.42,434.722 1035.22,431.608 1040.88,428.348 1046.4,424.934 1051.77,421.358 1056.99,417.612 1062.05,413.688 1066.93,409.578 1071.64,405.274 1076.17,400.776 1080.53,396.092 1084.73,391.23 1088.77,386.198 1092.67,381.003 1096.42,375.655 1100.04,370.162 1103.54,364.53 1106.91,358.769 1110.18,352.887 1113.34,346.891 1116.41,340.79 1119.38,334.592 1122.28,328.305 1125.1,321.937 1127.85,315.496 1130.55,308.99 1133.19,302.428 1135.79,295.817 1138.35,289.166 1140.89,282.482 1143.4,275.774 1145.89,269.05 1148.38,262.317 "/>
<polyline clip-path="url(#clip242)" style="stroke:#000000; stroke-linecap:round; stroke-linejoin:round; stroke-width:4; stroke-opacity:1; fill:none" points="1155.61,890.536 1167.29,894.524 1178.98,898.502 1190.66,902.458 1202.35,906.381 1214.04,910.26 1225.74,914.085 1237.44,917.844 1249.14,921.526 1260.85,925.12 1272.56,928.616 1284.28,932.003 1296.01,935.269 1307.74,938.404 1319.48,941.396 1331.24,944.235 1343,946.91 1354.77,949.41 1366.56,951.723 1378.35,953.84 1390.16,955.748 1401.98,957.437 1413.81,958.897 1425.66,960.115 1437.53,961.082 1449.4,961.787 1461.3,962.229 1473.21,962.419 1485.13,962.368 1497.07,962.088 1509.02,961.588 1520.98,960.881 1532.96,959.976 1544.94,958.885 1556.94,957.619 1568.94,956.189 1580.96,954.605 1592.98,952.88 1605.01,951.022 1617.05,949.045 1629.1,946.957 1641.15,944.772 1653.2,942.498 1665.26,940.148 1677.33,937.733 1689.39,935.262 1701.46,932.748 1713.54,930.201 1725.61,927.632 1737.68,925.052 "/>
<polyline clip-path="url(#clip242)" style="stroke:#000000; stroke-linecap:round; stroke-linejoin:round; stroke-width:4; stroke-opacity:1; fill:none" points="1155.61,890.536 1152.17,877.753 1148.75,864.97 1145.34,852.186 1141.97,839.403 1138.64,826.618 1135.37,813.834 1132.16,801.048 1129.03,788.261 1125.99,775.474 1123.04,762.685 1120.21,749.895 1117.5,737.104 1114.92,724.311 1112.48,711.517 1110.19,698.721 1108.07,685.923 1106.12,673.123 1104.36,660.32 1102.8,647.516 1101.45,634.709 1100.31,621.9 1099.41,609.088 1098.75,596.273 1098.34,583.455 1098.19,570.634 1098.31,557.81 1098.67,544.984 1099.28,532.154 1100.12,519.322 1101.18,506.487 1102.45,493.65 1103.91,480.811 1105.56,467.969 1107.39,455.126 1109.38,442.281 1111.52,429.433 1113.81,416.585 1116.23,403.734 1118.77,390.883 1121.42,378.03 1124.16,365.176 1127,352.321 1129.91,339.465 1132.89,326.608 1135.92,313.75 1139,300.893 1142.11,288.034 1145.24,275.176 1148.38,262.317 "/>
<path clip-path="url(#clip242)" d="M690.277 591.139 L676.297 566.925 L648.337 566.925 L634.358 591.139 L648.337 615.353 L676.297 615.353 L690.277 591.139 L690.277 591.139  Z" fill="#ffff00" fill-rule="evenodd" fill-opacity="1"/>
<polyline clip-path="url(#clip242)" style="stroke:#000000; stroke-linecap:round; stroke-linejoin:round; stroke-width:4; stroke-opacity:1; fill:none" points="690.277,591.139 676.297,566.925 648.337,566.925 634.358,591.139 648.337,615.353 676.297,615.353 690.277,591.139 "/>
<path clip-path="url(#clip242)" d="M1253.74 1302.55 L1238.68 1276.48 L1208.57 1276.48 L1193.52 1302.55 L1208.57 1328.63 L1238.68 1328.63 L1253.74 1302.55 L1253.74 1302.55  Z" fill="#ffed00" fill-rule="evenodd" fill-opacity="1"/>
<polyline clip-path="url(#clip242)" style="stroke:#000000; stroke-linecap:round; stroke-linejoin:round; stroke-width:4; stroke-opacity:1; fill:none" points="1253.74,1302.55 1238.68,1276.48 1208.57,1276.48 1193.52,1302.55 1208.57,1328.63 1238.68,1328.63 1253.74,1302.55 "/>
<path clip-path="url(#clip242)" d="M1105.48 697.644 L1089.35 669.706 L1057.09 669.706 L1040.96 697.644 L1057.09 725.583 L1089.35 725.583 L1105.48 697.644 L1105.48 697.644  Z" fill="#ffdb00" fill-rule="evenodd" fill-opacity="1"/>
<polyline clip-path="url(#clip242)" style="stroke:#000000; stroke-linecap:round; stroke-linejoin:round; stroke-width:4; stroke-opacity:1; fill:none" points="1105.48,697.644 1089.35,669.706 1057.09,669.706 1040.96,697.644 1057.09,725.583 1089.35,725.583 1105.48,697.644 "/>
<path clip-path="url(#clip242)" d="M1357.86 535.656 L1340.66 505.854 L1306.24 505.854 L1289.04 535.656 L1306.24 565.457 L1340.66 565.457 L1357.86 535.656 L1357.86 535.656  Z" fill="#ffc800" fill-rule="evenodd" fill-opacity="1"/>
<polyline clip-path="url(#clip242)" style="stroke:#000000; stroke-linecap:round; stroke-linejoin:round; stroke-width:4; stroke-opacity:1; fill:none" points="1357.86,535.656 1340.66,505.854 1306.24,505.854 1289.04,535.656 1306.24,565.457 1340.66,565.457 1357.86,535.656 "/>
<path clip-path="url(#clip242)" d="M964.224 1310.45 L945.943 1278.79 L909.381 1278.79 L891.099 1310.45 L909.381 1342.11 L945.943 1342.11 L964.224 1310.45 L964.224 1310.45  Z" fill="#ffb600" fill-rule="evenodd" fill-opacity="1"/>
<polyline clip-path="url(#clip242)" style="stroke:#000000; stroke-linecap:round; stroke-linejoin:round; stroke-width:4; stroke-opacity:1; fill:none" points="964.224,1310.45 945.943,1278.79 909.381,1278.79 891.099,1310.45 909.381,1342.11 945.943,1342.11 964.224,1310.45 "/>
<path clip-path="url(#clip242)" d="M789.864 891.765 L770.507 858.238 L731.794 858.238 L712.437 891.765 L731.794 925.291 L770.507 925.291 L789.864 891.765 L789.864 891.765  Z" fill="#ffa400" fill-rule="evenodd" fill-opacity="1"/>
<polyline clip-path="url(#clip242)" style="stroke:#000000; stroke-linecap:round; stroke-linejoin:round; stroke-width:4; stroke-opacity:1; fill:none" points="789.864,891.765 770.507,858.238 731.794,858.238 712.437,891.765 731.794,925.291 770.507,925.291 789.864,891.765 "/>
<path clip-path="url(#clip242)" d="M1498.08 913.438 L1477.65 878.049 L1436.78 878.049 L1416.35 913.438 L1436.78 948.827 L1477.65 948.827 L1498.08 913.438 L1498.08 913.438  Z" fill="#ff9200" fill-rule="evenodd" fill-opacity="1"/>
<polyline clip-path="url(#clip242)" style="stroke:#000000; stroke-linecap:round; stroke-linejoin:round; stroke-width:4; stroke-opacity:1; fill:none" points="1498.08,913.438 1477.65,878.049 1436.78,878.049 1416.35,913.438 1436.78,948.827 1477.65,948.827 1498.08,913.438 "/>
<path clip-path="url(#clip242)" d="M1582.37 1337.68 L1560.86 1300.43 L1517.85 1300.43 L1496.34 1337.68 L1517.85 1374.93 L1560.86 1374.93 L1582.37 1337.68 L1582.37 1337.68  Z" fill="#ff8000" fill-rule="evenodd" fill-opacity="1"/>
<polyline clip-path="url(#clip242)" style="stroke:#000000; stroke-linecap:round; stroke-linejoin:round; stroke-width:4; stroke-opacity:1; fill:none" points="1582.37,1337.68 1560.86,1300.43 1517.85,1300.43 1496.34,1337.68 1517.85,1374.93 1560.86,1374.93 1582.37,1337.68 "/>
<path clip-path="url(#clip242)" d="M1399.78 1021.06 L1377.2 981.945 L1332.03 981.945 L1309.45 1021.06 L1332.03 1060.17 L1377.2 1060.17 L1399.78 1021.06 L1399.78 1021.06  Z" fill="#ff6d00" fill-rule="evenodd" fill-opacity="1"/>
<polyline clip-path="url(#clip242)" style="stroke:#000000; stroke-linecap:round; stroke-linejoin:round; stroke-width:4; stroke-opacity:1; fill:none" points="1399.78,1021.06 1377.2,981.945 1332.03,981.945 1309.45,1021.06 1332.03,1060.17 1377.2,1060.17 1399.78,1021.06 "/>
<path clip-path="url(#clip242)" d="M1718.03 448.634 L1676.84 377.289 L1594.45 377.289 L1553.26 448.634 L1594.45 519.979 L1676.84 519.979 L1718.03 448.634 L1718.03 448.634  Z" fill="#ff5b00" fill-rule="evenodd" fill-opacity="1"/>
<polyline clip-path="url(#clip242)" style="stroke:#000000; stroke-linecap:round; stroke-linejoin:round; stroke-width:4; stroke-opacity:1; fill:none" points="1718.03,448.634 1676.84,377.289 1594.45,377.289 1553.26,448.634 1594.45,519.979 1676.84,519.979 1718.03,448.634 "/>
<path clip-path="url(#clip242)" d="M1023.99 1037.54 L980.924 962.954 L894.797 962.954 L851.734 1037.54 L894.797 1112.13 L980.924 1112.13 L1023.99 1037.54 L1023.99 1037.54  Z" fill="#ff4900" fill-rule="evenodd" fill-opacity="1"/>
<polyline clip-path="url(#clip242)" style="stroke:#000000; stroke-linecap:round; stroke-linejoin:round; stroke-width:4; stroke-opacity:1; fill:none" points="1023.99,1037.54 980.924,962.954 894.797,962.954 851.734,1037.54 894.797,1112.13 980.924,1112.13 1023.99,1037.54 "/>
<path clip-path="url(#clip242)" d="M1007.55 473.215 L962.619 395.384 L872.747 395.384 L827.812 473.215 L872.747 551.046 L962.619 551.046 L1007.55 473.215 L1007.55 473.215  Z" fill="#ff3700" fill-rule="evenodd" fill-opacity="1"/>
<polyline clip-path="url(#clip242)" style="stroke:#000000; stroke-linecap:round; stroke-linejoin:round; stroke-width:4; stroke-opacity:1; fill:none" points="1007.55,473.215 962.619,395.384 872.747,395.384 827.812,473.215 872.747,551.046 962.619,551.046 1007.55,473.215 "/>
<path clip-path="url(#clip242)" d="M1249.22 890.536 L1202.42 809.462 L1108.8 809.462 L1061.99 890.536 L1108.8 971.609 L1202.42 971.609 L1249.22 890.536 L1249.22 890.536  Z" fill="#ff2400" fill-rule="evenodd" fill-opacity="1"/>
<polyline clip-path="url(#clip242)" style="stroke:#000000; stroke-linecap:round; stroke-linejoin:round; stroke-width:4; stroke-opacity:1; fill:none" points="1249.22,890.536 1202.42,809.462 1108.8,809.462 1061.99,890.536 1108.8,971.609 1202.42,971.609 1249.22,890.536 "/>
<path clip-path="url(#clip242)" d="M1835.04 925.052 L1786.36 840.735 L1689 840.735 L1640.32 925.052 L1689 1009.37 L1786.36 1009.37 L1835.04 925.052 L1835.04 925.052  Z" fill="#ff1200" fill-rule="evenodd" fill-opacity="1"/>
<polyline clip-path="url(#clip242)" style="stroke:#000000; stroke-linecap:round; stroke-linejoin:round; stroke-width:4; stroke-opacity:1; fill:none" points="1835.04,925.052 1786.36,840.735 1689,840.735 1640.32,925.052 1689,1009.37 1786.36,1009.37 1835.04,925.052 "/>
<path clip-path="url(#clip242)" d="M1249.49 262.317 L1198.93 174.757 L1097.83 174.757 L1047.28 262.317 L1097.83 349.877 L1198.93 349.877 L1249.49 262.317 L1249.49 262.317  Z" fill="#ff0000" fill-rule="evenodd" fill-opacity="1"/>
<polyline clip-path="url(#clip242)" style="stroke:#000000; stroke-linecap:round; stroke-linejoin:round; stroke-width:4; stroke-opacity:1; fill:none" points="1249.49,262.317 1198.93,174.757 1097.83,174.757 1047.28,262.317 1097.83,349.877 1198.93,349.877 1249.49,262.317 "/>
<circle clip-path="url(#clip242)" style="fill:#ff0000; stroke:none; fill-opacity:0" cx="662.317" cy="591.139" r="2"/>
<circle clip-path="url(#clip242)" style="fill:#ff0000; stroke:none; fill-opacity:0" cx="1223.63" cy="1302.55" r="2"/>
<circle clip-path="url(#clip242)" style="fill:#ff0000; stroke:none; fill-opacity:0" cx="1073.22" cy="697.644" r="2"/>
<circle clip-path="url(#clip242)" style="fill:#ff0000; stroke:none; fill-opacity:0" cx="1323.45" cy="535.656" r="2"/>
<circle clip-path="url(#clip242)" style="fill:#ff0000; stroke:none; fill-opacity:0" cx="927.662" cy="1310.45" r="2"/>
<circle clip-path="url(#clip242)" style="fill:#ff0000; stroke:none; fill-opacity:0" cx="751.151" cy="891.765" r="2"/>
<circle clip-path="url(#clip242)" style="fill:#ff0000; stroke:none; fill-opacity:0" cx="1457.22" cy="913.438" r="2"/>
<circle clip-path="url(#clip242)" style="fill:#ff0000; stroke:none; fill-opacity:0" cx="1539.36" cy="1337.68" r="2"/>
<circle clip-path="url(#clip242)" style="fill:#ff0000; stroke:none; fill-opacity:0" cx="1354.61" cy="1021.06" r="2"/>
<circle clip-path="url(#clip242)" style="fill:#ff0000; stroke:none; fill-opacity:0" cx="1635.65" cy="448.634" r="2"/>
<circle clip-path="url(#clip242)" style="fill:#ff0000; stroke:none; fill-opacity:0" cx="937.861" cy="1037.54" r="2"/>
<circle clip-path="url(#clip242)" style="fill:#ff0000; stroke:none; fill-opacity:0" cx="917.683" cy="473.215" r="2"/>
<circle clip-path="url(#clip242)" style="fill:#ff0000; stroke:none; fill-opacity:0" cx="1155.61" cy="890.536" r="2"/>
<circle clip-path="url(#clip242)" style="fill:#ff0000; stroke:none; fill-opacity:0" cx="1737.68" cy="925.052" r="2"/>
<circle clip-path="url(#clip242)" style="fill:#ff0000; stroke:none; fill-opacity:0" cx="1148.38" cy="262.317" r="2"/>
<path clip-path="url(#clip240)" d="M650.295 607.82 L659.843 607.82 L659.843 574.863 L649.456 576.946 L649.456 571.622 L659.785 569.539 L665.63 569.539 L665.63 607.82 L675.179 607.82 L675.179 612.739 L650.295 612.739 L650.295 607.82 Z" fill="#000000" fill-rule="nonzero" fill-opacity="1" /><path clip-path="url(#clip240)" d="M1216.94 1319.23 L1237.34 1319.23 L1237.34 1324.15 L1209.91 1324.15 L1209.91 1319.23 Q1213.24 1315.79 1218.97 1310 Q1224.73 1304.19 1226.2 1302.51 Q1229.01 1299.36 1230.11 1297.19 Q1231.24 1294.99 1231.24 1292.87 Q1231.24 1289.43 1228.81 1287.26 Q1226.4 1285.09 1222.53 1285.09 Q1219.78 1285.09 1216.71 1286.05 Q1213.67 1287 1210.2 1288.94 L1210.2 1283.04 Q1213.73 1281.62 1216.8 1280.9 Q1219.86 1280.17 1222.41 1280.17 Q1229.12 1280.17 1233.12 1283.53 Q1237.11 1286.89 1237.11 1292.5 Q1237.11 1295.16 1236.1 1297.56 Q1235.11 1299.93 1232.48 1303.18 Q1231.76 1304.01 1227.88 1308.04 Q1224 1312.03 1216.94 1319.23 Z" fill="#000000" fill-rule="nonzero" fill-opacity="1" /><path clip-path="url(#clip240)" d="M1078.53 695.952 Q1082.73 696.849 1085.07 699.684 Q1087.44 702.52 1087.44 706.687 Q1087.44 713.081 1083.04 716.582 Q1078.65 720.083 1070.54 720.083 Q1067.82 720.083 1064.93 719.534 Q1062.07 719.013 1059 717.942 L1059 712.3 Q1061.43 713.718 1064.32 714.441 Q1067.22 715.165 1070.37 715.165 Q1075.87 715.165 1078.73 712.994 Q1081.63 710.824 1081.63 706.687 Q1081.63 702.867 1078.94 700.726 Q1076.27 698.556 1071.5 698.556 L1066.46 698.556 L1066.46 693.753 L1071.73 693.753 Q1076.04 693.753 1078.33 692.045 Q1080.61 690.309 1080.61 687.069 Q1080.61 683.741 1078.24 681.976 Q1075.9 680.182 1071.5 680.182 Q1069.1 680.182 1066.35 680.703 Q1063.6 681.224 1060.3 682.323 L1060.3 677.115 Q1063.63 676.189 1066.52 675.726 Q1069.44 675.263 1072.02 675.263 Q1078.67 675.263 1082.55 678.301 Q1086.43 681.311 1086.43 686.461 Q1086.43 690.049 1084.38 692.537 Q1082.32 694.997 1078.53 695.952 Z" fill="#000000" fill-rule="nonzero" fill-opacity="1" /><path clip-path="url(#clip240)" d="M1327.21 519.148 L1312.45 542.21 L1327.21 542.21 L1327.21 519.148 M1325.68 514.056 L1333.03 514.056 L1333.03 542.21 L1339.19 542.21 L1339.19 547.071 L1333.03 547.071 L1333.03 557.256 L1327.21 557.256 L1327.21 547.071 L1307.71 547.071 L1307.71 541.428 L1325.68 514.056 Z" fill="#000000" fill-rule="nonzero" fill-opacity="1" /><path clip-path="url(#clip240)" d="M915.509 1288.85 L938.455 1288.85 L938.455 1293.77 L920.862 1293.77 L920.862 1304.36 Q922.135 1303.93 923.408 1303.72 Q924.681 1303.49 925.955 1303.49 Q933.188 1303.49 937.413 1307.46 Q941.637 1311.42 941.637 1318.19 Q941.637 1325.16 937.297 1329.04 Q932.957 1332.89 925.058 1332.89 Q922.338 1332.89 919.502 1332.43 Q916.695 1331.96 913.686 1331.04 L913.686 1325.16 Q916.29 1326.58 919.068 1327.28 Q921.846 1327.97 924.942 1327.97 Q929.948 1327.97 932.87 1325.34 Q935.793 1322.7 935.793 1318.19 Q935.793 1313.68 932.87 1311.04 Q929.948 1308.41 924.942 1308.41 Q922.598 1308.41 920.254 1308.93 Q917.94 1309.45 915.509 1310.55 L915.509 1288.85 Z" fill="#000000" fill-rule="nonzero" fill-opacity="1" /><path clip-path="url(#clip240)" d="M751.657 889.435 Q747.722 889.435 745.407 892.126 Q743.121 894.817 743.121 899.505 Q743.121 904.163 745.407 906.883 Q747.722 909.574 751.657 909.574 Q755.592 909.574 757.878 906.883 Q760.193 904.163 760.193 899.505 Q760.193 894.817 757.878 892.126 Q755.592 889.435 751.657 889.435 M763.26 871.12 L763.26 876.444 Q761.061 875.402 758.804 874.852 Q756.576 874.302 754.377 874.302 Q748.59 874.302 745.523 878.209 Q742.485 882.115 742.051 890.014 Q743.758 887.497 746.333 886.166 Q748.908 884.806 752.004 884.806 Q758.515 884.806 762.276 888.77 Q766.067 892.705 766.067 899.505 Q766.067 906.16 762.131 910.182 Q758.196 914.204 751.657 914.204 Q744.163 914.204 740.199 908.475 Q736.235 902.717 736.235 891.808 Q736.235 881.565 741.096 875.489 Q745.957 869.383 754.145 869.383 Q756.344 869.383 758.572 869.817 Q760.829 870.251 763.26 871.12 Z" fill="#000000" fill-rule="nonzero" fill-opacity="1" /><path clip-path="url(#clip240)" d="M1443.33 891.838 L1471.11 891.838 L1471.11 894.326 L1455.42 935.038 L1449.32 935.038 L1464.07 896.757 L1443.33 896.757 L1443.33 891.838 Z" fill="#000000" fill-rule="nonzero" fill-opacity="1" /><path clip-path="url(#clip240)" d="M1539.36 1338.77 Q1535.19 1338.77 1532.79 1341 Q1530.42 1343.22 1530.42 1347.13 Q1530.42 1351.04 1532.79 1353.26 Q1535.19 1355.49 1539.36 1355.49 Q1543.52 1355.49 1545.93 1353.26 Q1548.33 1351.01 1548.33 1347.13 Q1548.33 1343.22 1545.93 1341 Q1543.55 1338.77 1539.36 1338.77 M1533.51 1336.28 Q1529.75 1335.35 1527.64 1332.78 Q1525.56 1330.2 1525.56 1326.5 Q1525.56 1321.32 1529.23 1318.31 Q1532.93 1315.3 1539.36 1315.3 Q1545.81 1315.3 1549.48 1318.31 Q1553.16 1321.32 1553.16 1326.5 Q1553.16 1330.2 1551.05 1332.78 Q1548.96 1335.35 1545.23 1336.28 Q1549.46 1337.26 1551.8 1340.13 Q1554.17 1342.99 1554.17 1347.13 Q1554.17 1353.41 1550.32 1356.77 Q1546.5 1360.12 1539.36 1360.12 Q1532.21 1360.12 1528.36 1356.77 Q1524.54 1353.41 1524.54 1347.13 Q1524.54 1342.99 1526.92 1340.13 Q1529.29 1337.26 1533.51 1336.28 M1531.37 1327.05 Q1531.37 1330.41 1533.45 1332.29 Q1535.57 1334.17 1539.36 1334.17 Q1543.12 1334.17 1545.23 1332.29 Q1547.37 1330.41 1547.37 1327.05 Q1547.37 1323.69 1545.23 1321.81 Q1543.12 1319.93 1539.36 1319.93 Q1535.57 1319.93 1533.45 1321.81 Q1531.37 1323.69 1531.37 1327.05 Z" fill="#000000" fill-rule="nonzero" fill-opacity="1" /><path clip-path="url(#clip240)" d="M1342.49 1041.76 L1342.49 1036.44 Q1344.69 1037.48 1346.95 1038.03 Q1349.2 1038.58 1351.37 1038.58 Q1357.16 1038.58 1360.2 1034.7 Q1363.27 1030.8 1363.7 1022.87 Q1362.02 1025.36 1359.45 1026.69 Q1356.87 1028.02 1353.75 1028.02 Q1347.26 1028.02 1343.47 1024.11 Q1339.71 1020.18 1339.71 1013.38 Q1339.71 1006.72 1343.65 1002.7 Q1347.58 998.678 1354.12 998.678 Q1361.62 998.678 1365.55 1004.44 Q1369.52 1010.17 1369.52 1021.1 Q1369.52 1031.32 1364.65 1037.42 Q1359.82 1043.5 1351.63 1043.5 Q1349.43 1043.5 1347.18 1043.06 Q1344.92 1042.63 1342.49 1041.76 M1354.12 1023.45 Q1358.06 1023.45 1360.34 1020.76 Q1362.66 1018.06 1362.66 1013.38 Q1362.66 1008.72 1360.34 1006.03 Q1358.06 1003.31 1354.12 1003.31 Q1350.19 1003.31 1347.87 1006.03 Q1345.59 1008.72 1345.59 1013.38 Q1345.59 1018.06 1347.87 1020.76 Q1350.19 1023.45 1354.12 1023.45 Z" fill="#000000" fill-rule="nonzero" fill-opacity="1" /><path clip-path="url(#clip240)" d="M1604.01 465.315 L1613.55 465.315 L1613.55 432.358 L1603.17 434.441 L1603.17 429.117 L1613.5 427.034 L1619.34 427.034 L1619.34 465.315 L1628.89 465.315 L1628.89 470.234 L1604.01 470.234 L1604.01 465.315 Z" fill="#000000" fill-rule="nonzero" fill-opacity="1" /><path clip-path="url(#clip240)" d="M1653.19 430.882 Q1648.68 430.882 1646.4 435.338 Q1644.14 439.765 1644.14 448.677 Q1644.14 457.56 1646.4 462.016 Q1648.68 466.443 1653.19 466.443 Q1657.74 466.443 1659.99 462.016 Q1662.28 457.56 1662.28 448.677 Q1662.28 439.765 1659.99 435.338 Q1657.74 430.882 1653.19 430.882 M1653.19 426.252 Q1660.46 426.252 1664.28 432.01 Q1668.13 437.74 1668.13 448.677 Q1668.13 459.585 1664.28 465.344 Q1660.46 471.073 1653.19 471.073 Q1645.93 471.073 1642.08 465.344 Q1638.26 459.585 1638.26 448.677 Q1638.26 437.74 1642.08 432.01 Q1645.93 426.252 1653.19 426.252 Z" fill="#000000" fill-rule="nonzero" fill-opacity="1" /><path clip-path="url(#clip240)" d="M906.987 1054.22 L916.536 1054.22 L916.536 1021.27 L906.148 1023.35 L906.148 1018.03 L916.478 1015.94 L922.323 1015.94 L922.323 1054.22 L931.871 1054.22 L931.871 1059.14 L906.987 1059.14 L906.987 1054.22 Z" fill="#000000" fill-rule="nonzero" fill-opacity="1" /><path clip-path="url(#clip240)" d="M944.689 1054.22 L954.238 1054.22 L954.238 1021.27 L943.85 1023.35 L943.85 1018.03 L954.18 1015.94 L960.025 1015.94 L960.025 1054.22 L969.574 1054.22 L969.574 1059.14 L944.689 1059.14 L944.689 1054.22 Z" fill="#000000" fill-rule="nonzero" fill-opacity="1" /><path clip-path="url(#clip240)" d="M887.041 489.896 L896.589 489.896 L896.589 456.939 L886.202 459.022 L886.202 453.698 L896.532 451.615 L902.376 451.615 L902.376 489.896 L911.925 489.896 L911.925 494.815 L887.041 494.815 L887.041 489.896 Z" fill="#000000" fill-rule="nonzero" fill-opacity="1" /><path clip-path="url(#clip240)" d="M928.765 489.896 L949.164 489.896 L949.164 494.815 L921.734 494.815 L921.734 489.896 Q925.061 486.453 930.791 480.666 Q936.549 474.85 938.024 473.172 Q940.831 470.018 941.931 467.848 Q943.059 465.648 943.059 463.536 Q943.059 460.093 940.629 457.923 Q938.227 455.753 934.35 455.753 Q931.601 455.753 928.534 456.708 Q925.495 457.662 922.023 459.601 L922.023 453.698 Q925.553 452.281 928.62 451.557 Q931.688 450.834 934.234 450.834 Q940.947 450.834 944.94 454.19 Q948.933 457.547 948.933 463.16 Q948.933 465.822 947.92 468.224 Q946.936 470.596 944.303 473.837 Q943.58 474.676 939.703 478.698 Q935.825 482.691 928.765 489.896 Z" fill="#000000" fill-rule="nonzero" fill-opacity="1" /><path clip-path="url(#clip240)" d="M1124.37 907.217 L1133.92 907.217 L1133.92 874.26 L1123.53 876.343 L1123.53 871.019 L1133.86 868.936 L1139.71 868.936 L1139.71 907.217 L1149.26 907.217 L1149.26 912.136 L1124.37 912.136 L1124.37 907.217 Z" fill="#000000" fill-rule="nonzero" fill-opacity="1" /><path clip-path="url(#clip240)" d="M1178.77 888.843 Q1182.97 889.74 1185.31 892.575 Q1187.68 895.411 1187.68 899.578 Q1187.68 905.972 1183.29 909.474 Q1178.89 912.975 1170.79 912.975 Q1168.07 912.975 1165.17 912.425 Q1162.31 911.904 1159.24 910.833 L1159.24 905.191 Q1161.67 906.609 1164.56 907.332 Q1167.46 908.056 1170.61 908.056 Q1176.11 908.056 1178.97 905.886 Q1181.87 903.715 1181.87 899.578 Q1181.87 895.758 1179.18 893.617 Q1176.51 891.447 1171.74 891.447 L1166.71 891.447 L1166.71 886.644 L1171.97 886.644 Q1176.28 886.644 1178.57 884.937 Q1180.85 883.201 1180.85 879.96 Q1180.85 876.632 1178.48 874.867 Q1176.14 873.073 1171.74 873.073 Q1169.34 873.073 1166.59 873.594 Q1163.84 874.115 1160.54 875.214 L1160.54 870.006 Q1163.87 869.08 1166.76 868.617 Q1169.69 868.154 1172.26 868.154 Q1178.92 868.154 1182.79 871.192 Q1186.67 874.202 1186.67 879.352 Q1186.67 882.94 1184.62 885.428 Q1182.56 887.888 1178.77 888.843 Z" fill="#000000" fill-rule="nonzero" fill-opacity="1" /><path clip-path="url(#clip240)" d="M1705.74 941.733 L1715.29 941.733 L1715.29 908.776 L1704.9 910.859 L1704.9 905.535 L1715.23 903.452 L1721.07 903.452 L1721.07 941.733 L1730.62 941.733 L1730.62 946.652 L1705.74 946.652 L1705.74 941.733 Z" fill="#000000" fill-rule="nonzero" fill-opacity="1" /><path clip-path="url(#clip240)" d="M1758.49 908.545 L1743.73 931.606 L1758.49 931.606 L1758.49 908.545 M1756.95 903.452 L1764.3 903.452 L1764.3 931.606 L1770.47 931.606 L1770.47 936.467 L1764.3 936.467 L1764.3 946.652 L1758.49 946.652 L1758.49 936.467 L1738.98 936.467 L1738.98 930.825 L1756.95 903.452 Z" fill="#000000" fill-rule="nonzero" fill-opacity="1" /><path clip-path="url(#clip240)" d="M1117.36 278.998 L1126.91 278.998 L1126.91 246.041 L1116.52 248.125 L1116.52 242.801 L1126.85 240.717 L1132.7 240.717 L1132.7 278.998 L1142.25 278.998 L1142.25 283.917 L1117.36 283.917 L1117.36 278.998 Z" fill="#000000" fill-rule="nonzero" fill-opacity="1" /><path clip-path="url(#clip240)" d="M1154.11 240.717 L1177.06 240.717 L1177.06 245.636 L1159.46 245.636 L1159.46 256.226 Q1160.74 255.792 1162.01 255.59 Q1163.28 255.358 1164.56 255.358 Q1171.79 255.358 1176.01 259.322 Q1180.24 263.287 1180.24 270.057 Q1180.24 277.031 1175.9 280.908 Q1171.56 284.756 1163.66 284.756 Q1160.94 284.756 1158.1 284.293 Q1155.3 283.83 1152.29 282.904 L1152.29 277.031 Q1154.89 278.448 1157.67 279.143 Q1160.45 279.837 1163.54 279.837 Q1168.55 279.837 1171.47 277.204 Q1174.39 274.571 1174.39 270.057 Q1174.39 265.543 1171.47 262.91 Q1168.55 260.277 1163.54 260.277 Q1161.2 260.277 1158.86 260.798 Q1156.54 261.319 1154.11 262.418 L1154.11 240.717 Z" fill="#000000" fill-rule="nonzero" fill-opacity="1" /></svg>
