<?xml version="1.0" encoding="utf-8"?>
<svg xmlns="http://www.w3.org/2000/svg" xmlns:xlink="http://www.w3.org/1999/xlink" width="600" height="400" viewBox="0 0 2400 1600">
<defs>
  <clipPath id="clip680">
    <rect x="0" y="0" width="2400" height="1600"/>
  </clipPath>
</defs>
<path clip-path="url(#clip680)" d="M0 1600 L2400 1600 L2400 8.88178e-14 L0 8.88178e-14  Z" fill="#ffffff" fill-rule="evenodd" fill-opacity="1"/>
<defs>
  <clipPath id="clip681">
    <rect x="480" y="0" width="1681" height="1600"/>
  </clipPath>
</defs>
<path clip-path="url(#clip680)" d="M447.244 1552.76 L1952.76 1552.76 L1952.76 47.2441 L447.244 47.2441  Z" fill="#ffffff" fill-rule="evenodd" fill-opacity="1"/>
<defs>
  <clipPath id="clip682">
    <rect x="447" y="47" width="1507" height="1507"/>
  </clipPath>
</defs>
<polyline clip-path="url(#clip682)" style="stroke:#000000; stroke-linecap:round; stroke-linejoin:round; stroke-width:4; stroke-opacity:1; fill:none" points="907.503,872.244 916.275,881.386 925.053,890.519 933.842,899.634 942.649,908.72 951.478,917.768 960.335,926.77 969.226,935.715 978.157,944.595 987.133,953.399 996.161,962.119 1005.24,970.745 1014.39,979.268 1023.61,987.678 1032.89,995.966 1042.26,1004.12 1051.71,1012.14 1061.26,1020 1070.9,1027.71 1080.64,1035.25 1090.49,1042.61 1100.45,1049.78 1110.53,1056.75 1120.74,1063.52 1131.08,1070.07 1141.55,1076.39 1152.16,1082.5 1162.9,1088.38 1173.77,1094.06 1184.75,1099.54 1195.85,1104.84 1207.05,1109.95 1218.36,1114.9 1229.76,1119.68 1241.25,1124.32 1252.83,1128.82 1264.49,1133.18 1276.22,1137.42 1288.02,1141.55 1299.89,1145.58 1311.81,1149.51 1323.78,1153.36 1335.79,1157.13 1347.85,1160.84 1359.94,1164.49 1372.05,1168.09 1384.19,1171.66 1396.35,1175.2 1408.52,1178.72 1420.69,1182.23 "/>
<polyline clip-path="url(#clip682)" style="stroke:#000000; stroke-linecap:round; stroke-linejoin:round; stroke-width:4; stroke-opacity:1; fill:none" points="907.503,872.244 919.528,874.063 931.551,875.872 943.572,877.659 955.588,879.413 967.599,881.124 979.603,882.78 991.6,884.371 1003.59,885.886 1015.56,887.314 1027.53,888.644 1039.48,889.865 1051.41,890.966 1063.33,891.936 1075.23,892.765 1087.11,893.442 1098.98,893.956 1110.82,894.295 1122.63,894.449 1134.43,894.407 1146.19,894.159 1157.93,893.693 1169.65,892.998 1181.33,892.064 1192.98,890.879 1204.6,889.434 1216.18,887.728 1227.74,885.771 1239.26,883.575 1250.76,881.151 1262.23,878.508 1273.67,875.659 1285.09,872.614 1296.49,869.384 1307.86,865.98 1319.22,862.413 1330.55,858.693 1341.87,854.832 1353.17,850.84 1364.46,846.728 1375.73,842.508 1386.99,838.189 1398.25,833.784 1409.49,829.302 1420.72,824.755 1431.94,820.154 1443.16,815.509 1454.38,810.831 1465.59,806.131 1476.81,801.421 "/>
<polyline clip-path="url(#clip682)" style="stroke:#000000; stroke-linecap:round; stroke-linejoin:round; stroke-width:4; stroke-opacity:1; fill:none" points="907.503,872.244 910.635,877.647 913.772,883.041 916.919,888.415 920.082,893.76 923.265,899.067 926.474,904.325 929.714,909.525 932.991,914.658 936.308,919.713 939.673,924.681 943.089,929.552 946.562,934.317 950.096,938.965 953.698,943.488 957.373,947.876 961.125,952.118 964.959,956.206 968.882,960.129 972.897,963.878 977.011,967.443 981.228,970.815 985.554,973.983 989.993,976.939 994.551,979.672 999.233,982.173 1004.04,984.443 1008.96,986.49 1014,988.324 1019.15,989.955 1024.4,991.393 1029.75,992.647 1035.19,993.726 1040.72,994.642 1046.33,995.402 1052.02,996.017 1057.78,996.497 1063.61,996.851 1069.5,997.089 1075.45,997.221 1081.45,997.255 1087.5,997.203 1093.59,997.073 1099.71,996.876 1105.86,996.621 1112.04,996.317 1118.25,995.974 1124.46,995.603 1130.69,995.212 1136.92,994.811 "/>
<polyline clip-path="url(#clip682)" style="stroke:#000000; stroke-linecap:round; stroke-linejoin:round; stroke-width:4; stroke-opacity:1; fill:none" points="907.503,872.244 905.263,882.098 903.034,891.95 900.827,901.8 898.652,911.647 896.521,921.489 894.444,931.325 892.433,941.154 890.499,950.974 888.651,960.785 886.902,970.586 885.262,980.375 883.741,990.15 882.352,999.912 881.104,1009.66 880.009,1019.39 879.077,1029.1 878.32,1038.79 877.749,1048.46 877.373,1058.12 877.205,1067.74 877.255,1077.35 877.534,1086.93 878.053,1096.48 878.822,1106.01 879.853,1115.51 881.145,1124.98 882.688,1134.42 884.471,1143.84 886.483,1153.23 888.713,1162.6 891.15,1171.95 893.783,1181.27 896.602,1190.58 899.595,1199.86 902.752,1209.13 906.061,1218.38 909.512,1227.62 913.094,1236.84 916.796,1246.05 920.607,1255.25 924.517,1264.43 928.513,1273.61 932.586,1282.78 936.724,1291.94 940.917,1301.1 945.153,1310.25 949.422,1319.39 953.713,1328.54 958.015,1337.68 "/>
<polyline clip-path="url(#clip682)" style="stroke:#000000; stroke-linecap:round; stroke-linejoin:round; stroke-width:4; stroke-opacity:1; fill:none" points="907.503,872.244 900.214,869.782 892.933,867.312 885.668,864.826 878.425,862.316 871.212,859.775 864.038,857.194 856.909,854.566 849.834,851.883 842.819,849.137 835.873,846.319 829.004,843.423 822.218,840.44 815.523,837.362 808.928,834.182 802.439,830.891 796.064,827.482 789.812,823.946 783.688,820.276 777.702,816.465 771.861,812.503 766.172,808.383 760.643,804.098 755.281,799.639 750.095,794.999 745.091,790.169 740.27,785.15 735.624,779.95 731.145,774.576 726.827,769.037 722.66,763.34 718.639,757.492 714.755,751.503 711,745.379 707.367,739.13 703.848,732.761 700.436,726.283 697.123,719.702 693.901,713.026 690.763,706.263 687.702,699.421 684.708,692.508 681.776,685.532 678.897,678.501 676.064,671.423 673.269,664.305 670.504,657.155 667.763,649.982 665.036,642.793 662.317,635.596 "/>
<polyline clip-path="url(#clip682)" style="stroke:#000000; stroke-linecap:round; stroke-linejoin:round; stroke-width:4; stroke-opacity:1; fill:none" points="907.503,872.244 916.461,867.382 925.411,862.513 934.345,857.628 943.255,852.722 952.133,847.786 960.97,842.812 969.759,837.794 978.491,832.724 987.159,827.594 995.754,822.398 1004.27,817.127 1012.69,811.774 1021.02,806.332 1029.25,800.794 1037.36,795.151 1045.35,789.397 1053.21,783.524 1060.94,777.524 1068.52,771.391 1075.94,765.116 1083.21,758.693 1090.3,752.114 1097.22,745.371 1103.95,738.456 1110.49,731.364 1116.84,724.094 1123,716.653 1128.98,709.048 1134.8,701.287 1140.45,693.377 1145.95,685.326 1151.3,677.141 1156.52,668.83 1161.61,660.399 1166.57,651.858 1171.43,643.212 1176.18,634.469 1180.83,625.638 1185.4,616.724 1189.88,607.736 1194.29,598.681 1198.64,589.567 1202.93,580.401 1207.17,571.19 1211.37,561.942 1215.54,552.664 1219.68,543.364 1223.81,534.049 1227.93,524.726 "/>
<polyline clip-path="url(#clip682)" style="stroke:#000000; stroke-linecap:round; stroke-linejoin:round; stroke-width:4; stroke-opacity:1; fill:none" points="907.503,872.244 917.095,861.355 926.678,850.46 936.241,839.556 945.775,828.636 955.27,817.694 964.717,806.727 974.106,795.729 983.428,784.695 992.672,773.619 1001.83,762.496 1010.89,751.321 1019.84,740.089 1028.68,728.794 1037.4,717.433 1045.97,705.998 1054.41,694.485 1062.68,682.89 1070.8,671.206 1078.74,659.428 1086.5,647.552 1094.06,635.572 1101.42,623.483 1108.57,611.279 1115.49,598.956 1122.19,586.509 1128.65,573.937 1134.89,561.245 1140.92,548.44 1146.75,535.525 1152.38,522.506 1157.83,509.388 1163.1,496.177 1168.21,482.878 1173.17,469.496 1177.98,456.035 1182.65,442.502 1187.2,428.902 1191.64,415.239 1195.97,401.519 1200.2,387.747 1204.34,373.928 1208.41,360.067 1212.41,346.171 1216.35,332.243 1220.24,318.289 1224.1,304.314 1227.93,290.324 1231.73,276.323 1235.53,262.317 "/>
<polyline clip-path="url(#clip682)" style="stroke:#000000; stroke-linecap:round; stroke-linejoin:round; stroke-width:4; stroke-opacity:1; fill:none" points="907.503,872.244 913.561,869.062 919.61,865.874 925.64,862.674 931.644,859.456 937.61,856.213 943.531,852.94 949.397,849.631 955.199,846.279 960.928,842.879 966.574,839.424 972.129,835.909 977.584,832.327 982.929,828.672 988.155,824.939 993.253,821.12 998.214,817.211 1003.03,813.204 1007.69,809.095 1012.18,804.876 1016.5,800.543 1020.64,796.088 1024.59,791.505 1028.33,786.79 1031.87,781.935 1035.18,776.934 1038.28,771.789 1041.17,766.504 1043.85,761.086 1046.35,755.54 1048.66,749.873 1050.8,744.091 1052.77,738.2 1054.59,732.206 1056.26,726.115 1057.79,719.932 1059.2,713.665 1060.48,707.32 1061.66,700.901 1062.74,694.416 1063.72,687.87 1064.63,681.27 1065.46,674.621 1066.22,667.929 1066.93,661.202 1067.6,654.444 1068.23,647.661 1068.83,640.861 1069.41,634.048 1069.99,627.23 "/>
<polyline clip-path="url(#clip682)" style="stroke:#000000; stroke-linecap:round; stroke-linejoin:round; stroke-width:4; stroke-opacity:1; fill:none" points="907.503,872.244 910.923,863.706 914.333,855.168 917.72,846.63 921.074,838.091 924.385,829.552 927.641,821.012 930.831,812.471 933.944,803.928 936.969,795.384 939.896,786.839 942.713,778.292 945.409,769.744 947.974,761.193 950.396,752.64 952.665,744.085 954.769,735.527 956.698,726.967 958.44,718.404 959.985,709.837 961.321,701.268 962.439,692.695 963.325,684.119 963.971,675.539 964.364,666.955 964.495,658.368 964.362,649.776 963.978,641.181 963.352,632.581 962.496,623.979 961.421,615.373 960.137,606.763 958.656,598.151 956.988,589.536 955.145,580.918 953.137,572.298 950.976,563.676 948.672,555.051 946.237,546.424 943.681,537.796 941.015,529.166 938.251,520.534 935.399,511.901 932.47,503.267 929.475,494.631 926.425,485.995 923.332,477.359 920.206,468.721 917.057,460.084 913.898,451.446 "/>
<polyline clip-path="url(#clip682)" style="stroke:#000000; stroke-linecap:round; stroke-linejoin:round; stroke-width:4; stroke-opacity:1; fill:none" points="1420.69,1182.23 1425.09,1174.94 1429.48,1167.64 1433.85,1160.35 1438.19,1153.04 1442.48,1145.74 1446.72,1138.42 1450.89,1131.1 1454.98,1123.76 1458.99,1116.41 1462.9,1109.05 1466.71,1101.67 1470.39,1094.27 1473.95,1086.85 1477.36,1079.41 1480.62,1071.95 1483.72,1064.47 1486.64,1056.96 1489.38,1049.42 1491.93,1041.86 1494.26,1034.26 1496.39,1026.64 1498.28,1018.97 1499.93,1011.28 1501.34,1003.54 1502.48,995.772 1503.37,987.963 1504,980.116 1504.4,972.234 1504.57,964.319 1504.52,956.371 1504.27,948.393 1503.82,940.387 1503.18,932.353 1502.38,924.294 1501.41,916.211 1500.28,908.105 1499.02,899.978 1497.63,891.833 1496.11,883.669 1494.49,875.49 1492.77,867.296 1490.97,859.09 1489.09,850.872 1487.14,842.645 1485.14,834.41 1483.09,826.168 1481.02,817.922 1478.92,809.672 1476.81,801.421 "/>
<polyline clip-path="url(#clip682)" style="stroke:#000000; stroke-linecap:round; stroke-linejoin:round; stroke-width:4; stroke-opacity:1; fill:none" points="1420.69,1182.23 1414.22,1176.24 1407.77,1170.26 1401.33,1164.26 1394.92,1158.25 1388.55,1152.21 1382.23,1146.16 1375.96,1140.08 1369.77,1133.96 1363.66,1127.81 1357.64,1121.61 1351.71,1115.37 1345.9,1109.08 1340.2,1102.73 1334.64,1096.32 1329.21,1089.84 1323.93,1083.3 1318.81,1076.67 1313.86,1069.97 1309.08,1063.19 1304.5,1056.31 1300.11,1049.34 1295.93,1042.28 1291.97,1035.1 1288.24,1027.83 1284.74,1020.44 1281.49,1012.93 1278.46,1005.32 1275.65,997.608 1273.04,989.796 1270.64,981.89 1268.42,973.895 1266.39,965.815 1264.52,957.655 1262.81,949.421 1261.24,941.116 1259.82,932.746 1258.53,924.315 1257.35,915.827 1256.29,907.288 1255.32,898.702 1254.44,890.073 1253.64,881.408 1252.91,872.709 1252.25,863.982 1251.63,855.232 1251.05,846.463 1250.5,837.68 1249.96,828.888 1249.44,820.091 "/>
<polyline clip-path="url(#clip682)" style="stroke:#000000; stroke-linecap:round; stroke-linejoin:round; stroke-width:4; stroke-opacity:1; fill:none" points="1420.69,1182.23 1428.53,1172.48 1436.35,1162.72 1444.15,1152.95 1451.92,1143.17 1459.65,1133.38 1467.33,1123.56 1474.96,1113.71 1482.51,1103.84 1489.98,1093.93 1497.36,1083.98 1504.63,1073.99 1511.8,1063.94 1518.85,1053.85 1525.77,1043.7 1532.54,1033.49 1539.17,1023.21 1545.63,1012.86 1551.93,1002.44 1558.04,991.937 1563.96,981.353 1569.68,970.681 1575.19,959.918 1580.48,949.058 1585.53,938.097 1590.35,927.031 1594.92,915.861 1599.26,904.59 1603.39,893.223 1607.3,881.763 1611.01,870.217 1614.52,858.587 1617.86,846.878 1621.03,835.095 1624.03,823.242 1626.89,811.323 1629.6,799.343 1632.18,787.306 1634.65,775.217 1637,763.079 1639.25,750.898 1641.41,738.677 1643.49,726.421 1645.5,714.135 1647.45,701.822 1649.35,689.487 1651.21,677.135 1653.03,664.77 1654.84,652.396 1656.64,640.018 "/>
<polyline clip-path="url(#clip682)" style="stroke:#000000; stroke-linecap:round; stroke-linejoin:round; stroke-width:4; stroke-opacity:1; fill:none" points="1420.69,1182.23 1428.04,1177.38 1435.38,1172.53 1442.7,1167.66 1449.99,1162.77 1457.25,1157.86 1464.46,1152.92 1471.62,1147.94 1478.71,1142.92 1485.73,1137.85 1492.67,1132.72 1499.52,1127.53 1506.27,1122.27 1512.92,1116.93 1519.44,1111.52 1525.84,1106.02 1532.11,1100.42 1538.23,1094.72 1544.19,1088.92 1549.99,1083.01 1555.63,1076.98 1561.08,1070.82 1566.34,1064.53 1571.4,1058.11 1576.26,1051.54 1580.9,1044.82 1585.32,1037.95 1589.54,1030.94 1593.56,1023.79 1597.38,1016.52 1601.03,1009.11 1604.51,1001.59 1607.82,993.957 1610.98,986.217 1614,978.378 1616.88,970.445 1619.63,962.425 1622.27,954.323 1624.79,946.147 1627.22,937.902 1629.56,929.595 1631.82,921.232 1634,912.819 1636.12,904.363 1638.19,895.868 1640.22,887.343 1642.2,878.793 1644.16,870.224 1646.1,861.643 1648.04,853.055 "/>
<polyline clip-path="url(#clip682)" style="stroke:#000000; stroke-linecap:round; stroke-linejoin:round; stroke-width:4; stroke-opacity:1; fill:none" points="1420.69,1182.23 1413.09,1181.15 1405.49,1180.06 1397.9,1178.95 1390.34,1177.82 1382.79,1176.65 1375.28,1175.43 1367.8,1174.16 1360.37,1172.82 1352.98,1171.42 1345.65,1169.92 1338.38,1168.34 1331.17,1166.66 1324.04,1164.86 1316.98,1162.95 1310.01,1160.91 1303.13,1158.73 1296.35,1156.41 1289.67,1153.93 1283.1,1151.28 1276.64,1148.47 1270.31,1145.47 1264.1,1142.27 1258.03,1138.88 1252.09,1135.27 1246.3,1131.45 1240.65,1127.4 1235.15,1123.15 1229.77,1118.69 1224.52,1114.04 1219.4,1109.21 1214.39,1104.21 1209.48,1099.04 1204.68,1093.71 1199.98,1088.24 1195.37,1082.63 1190.84,1076.89 1186.39,1071.04 1182.01,1065.07 1177.7,1059 1173.45,1052.84 1169.26,1046.6 1165.11,1040.29 1161,1033.91 1156.93,1027.48 1152.9,1021 1148.88,1014.49 1144.88,1007.94 1140.9,1001.38 1136.92,994.811 "/>
<polyline clip-path="url(#clip682)" style="stroke:#000000; stroke-linecap:round; stroke-linejoin:round; stroke-width:4; stroke-opacity:1; fill:none" points="1420.69,1182.23 1412.3,1188.52 1403.9,1194.8 1395.5,1201.06 1387.08,1207.29 1378.65,1213.48 1370.2,1219.61 1361.74,1225.69 1353.24,1231.69 1344.72,1237.6 1336.17,1243.43 1327.59,1249.15 1318.96,1254.75 1310.29,1260.23 1301.58,1265.58 1292.82,1270.78 1284.01,1275.82 1275.14,1280.7 1266.21,1285.4 1257.21,1289.91 1248.16,1294.23 1239.03,1298.33 1229.83,1302.22 1220.55,1305.88 1211.19,1309.31 1201.75,1312.48 1192.22,1315.4 1182.61,1318.09 1172.93,1320.54 1163.17,1322.78 1153.35,1324.81 1143.46,1326.64 1133.5,1328.28 1123.48,1329.75 1113.41,1331.05 1103.29,1332.2 1093.12,1333.2 1082.9,1334.06 1072.64,1334.8 1062.34,1335.43 1052.01,1335.95 1041.64,1336.38 1031.25,1336.72 1020.83,1337 1010.4,1337.21 999.941,1337.36 989.472,1337.48 978.992,1337.56 968.505,1337.63 958.015,1337.68 "/>
<polyline clip-path="url(#clip682)" style="stroke:#000000; stroke-linecap:round; stroke-linejoin:round; stroke-width:4; stroke-opacity:1; fill:none" points="1476.81,801.421 1472.83,794.35 1468.86,787.278 1464.91,780.205 1460.99,773.127 1457.12,766.046 1453.31,758.96 1449.55,751.867 1445.88,744.767 1442.29,737.659 1438.8,730.541 1435.42,723.413 1432.16,716.273 1429.04,709.121 1426.05,701.955 1423.21,694.775 1420.54,687.579 1418.05,680.366 1415.74,673.136 1413.63,665.886 1411.72,658.617 1410.03,651.328 1408.57,644.016 1407.36,636.681 1406.39,629.322 1405.68,621.939 1405.24,614.53 1405.05,607.098 1405.09,599.642 1405.37,592.164 1405.87,584.666 1406.57,577.148 1407.47,569.611 1408.55,562.056 1409.81,554.485 1411.24,546.898 1412.81,539.296 1414.53,531.681 1416.38,524.053 1418.35,516.414 1420.43,508.765 1422.61,501.106 1424.87,493.438 1427.21,485.764 1429.62,478.083 1432.08,470.397 1434.58,462.707 1437.12,455.013 1439.68,447.318 1442.25,439.621 "/>
<polyline clip-path="url(#clip682)" style="stroke:#000000; stroke-linecap:round; stroke-linejoin:round; stroke-width:4; stroke-opacity:1; fill:none" points="1476.81,801.421 1484.98,793.832 1493.15,786.238 1501.29,778.633 1509.41,771.011 1517.49,763.367 1525.52,755.696 1533.49,747.992 1541.4,740.25 1549.23,732.464 1556.98,724.629 1564.63,716.738 1572.18,708.788 1579.61,700.772 1586.92,692.684 1594.1,684.52 1601.13,676.274 1608.01,667.94 1614.73,659.512 1621.28,650.987 1627.65,642.357 1633.83,633.617 1639.81,624.763 1645.58,615.787 1651.13,606.686 1656.46,597.454 1661.55,588.09 1666.43,578.6 1671.1,568.99 1675.57,559.265 1679.85,549.43 1683.95,539.491 1687.87,529.453 1691.64,519.322 1695.25,509.104 1698.73,498.803 1702.06,488.426 1705.28,477.977 1708.38,467.463 1711.38,456.888 1714.28,446.259 1717.09,435.58 1719.83,424.857 1722.51,414.096 1725.12,403.303 1727.69,392.481 1730.22,381.638 1732.73,370.779 1735.21,359.908 1737.68,349.032 "/>
<polyline clip-path="url(#clip682)" style="stroke:#000000; stroke-linecap:round; stroke-linejoin:round; stroke-width:4; stroke-opacity:1; fill:none" points="1476.81,801.421 1463.58,797.073 1450.36,792.715 1437.15,788.339 1423.96,783.935 1410.8,779.494 1397.66,775.006 1384.56,770.462 1371.49,765.853 1358.48,761.169 1345.51,756.402 1332.6,751.541 1319.76,746.578 1306.99,741.503 1294.29,736.308 1281.67,730.981 1269.14,725.515 1256.71,719.9 1244.37,714.127 1232.13,708.186 1220.01,702.068 1208,695.763 1196.11,689.263 1184.35,682.558 1172.72,675.639 1161.24,668.497 1149.89,661.131 1138.67,653.551 1127.58,645.767 1116.62,637.786 1105.76,629.62 1095.02,621.276 1084.39,612.765 1073.85,604.095 1063.4,595.277 1053.04,586.318 1042.77,577.229 1032.56,568.02 1022.43,558.698 1012.36,549.274 1002.35,539.757 992.391,530.155 982.478,520.48 972.606,510.739 962.768,500.942 952.959,491.099 943.174,481.218 933.406,471.31 923.649,461.383 913.898,451.446 "/>
<polyline clip-path="url(#clip682)" style="stroke:#000000; stroke-linecap:round; stroke-linejoin:round; stroke-width:4; stroke-opacity:1; fill:none" points="1249.44,820.091 1259.08,819.425 1268.72,818.749 1278.35,818.053 1287.96,817.327 1297.56,816.56 1307.13,815.744 1316.68,814.867 1326.2,813.921 1335.68,812.893 1345.12,811.776 1354.52,810.558 1363.86,809.23 1373.16,807.782 1382.4,806.203 1391.57,804.484 1400.68,802.614 1409.72,800.584 1418.68,798.383 1427.56,796.002 1436.36,793.43 1445.07,790.657 1453.69,787.674 1462.2,784.47 1470.62,781.036 1478.93,777.361 1487.13,773.445 1495.24,769.299 1503.24,764.933 1511.15,760.355 1518.97,755.577 1526.71,750.609 1534.37,745.46 1541.95,740.14 1549.46,734.66 1556.91,729.029 1564.29,723.258 1571.62,717.356 1578.89,711.335 1586.11,705.202 1593.29,698.97 1600.43,692.647 1607.54,686.244 1614.61,679.77 1621.65,673.237 1628.68,666.653 1635.68,660.03 1642.68,653.376 1649.66,646.702 1656.64,640.018 "/>
<polyline clip-path="url(#clip682)" style="stroke:#000000; stroke-linecap:round; stroke-linejoin:round; stroke-width:4; stroke-opacity:1; fill:none" points="1249.44,820.091 1257.31,824.042 1265.17,827.983 1273.04,831.902 1280.91,835.788 1288.78,839.63 1296.66,843.418 1304.54,847.14 1312.43,850.786 1320.32,854.344 1328.23,857.804 1336.14,861.154 1344.06,864.384 1352,867.483 1359.94,870.44 1367.9,873.244 1375.87,875.884 1383.86,878.349 1391.86,880.628 1399.88,882.711 1407.91,884.585 1415.97,886.242 1424.04,887.668 1432.13,888.854 1440.24,889.789 1448.38,890.462 1456.53,890.872 1464.71,891.032 1472.91,890.951 1481.12,890.64 1489.36,890.111 1497.61,889.374 1505.88,888.44 1514.16,887.321 1522.46,886.026 1530.77,884.568 1539.09,882.957 1547.43,881.203 1555.77,879.318 1564.13,877.313 1572.49,875.199 1580.87,872.987 1589.25,870.686 1597.63,868.31 1606.02,865.868 1614.42,863.371 1622.82,860.83 1631.22,858.257 1639.63,855.662 1648.04,853.055 "/>
<polyline clip-path="url(#clip682)" style="stroke:#000000; stroke-linecap:round; stroke-linejoin:round; stroke-width:4; stroke-opacity:1; fill:none" points="1249.44,820.091 1249.91,825.438 1250.37,830.779 1250.82,836.108 1251.23,841.42 1251.61,846.708 1251.94,851.966 1252.22,857.188 1252.43,862.369 1252.57,867.502 1252.62,872.582 1252.58,877.603 1252.44,882.558 1252.19,887.442 1251.82,892.248 1251.33,896.972 1250.69,901.606 1249.91,906.146 1248.96,910.584 1247.86,914.916 1246.57,919.135 1245.11,923.235 1243.45,927.21 1241.58,931.054 1239.51,934.762 1237.21,938.328 1234.7,941.752 1231.97,945.038 1229.03,948.195 1225.91,951.226 1222.6,954.139 1219.11,956.939 1215.46,959.632 1211.65,962.224 1207.7,964.721 1203.6,967.129 1199.38,969.453 1195.04,971.701 1190.58,973.877 1186.03,975.988 1181.38,978.04 1176.65,980.038 1171.84,981.988 1166.97,983.897 1162.05,985.771 1157.08,987.615 1152.07,989.435 1147.04,991.237 1141.99,993.027 1136.92,994.811 "/>
<polyline clip-path="url(#clip682)" style="stroke:#000000; stroke-linecap:round; stroke-linejoin:round; stroke-width:4; stroke-opacity:1; fill:none" points="1249.44,820.091 1236.48,819.464 1223.51,818.827 1210.55,818.17 1197.6,817.48 1184.67,816.749 1171.75,815.966 1158.85,815.12 1145.97,814.201 1133.12,813.197 1120.3,812.1 1107.51,810.898 1094.76,809.581 1082.05,808.139 1069.38,806.56 1056.76,804.835 1044.18,802.953 1031.66,800.903 1019.2,798.676 1006.79,796.26 994.448,793.645 982.17,790.822 969.961,787.778 957.824,784.504 945.763,780.99 933.781,777.225 921.877,773.209 910.05,768.952 898.294,764.465 886.608,759.759 874.987,754.843 863.429,749.728 851.93,744.425 840.487,738.945 829.097,733.296 817.756,727.491 806.46,721.539 795.208,715.451 783.995,709.238 772.818,702.91 761.675,696.477 750.56,689.949 739.472,683.338 728.408,676.654 717.362,669.907 706.334,663.108 695.318,656.267 684.312,649.394 673.313,642.5 662.317,635.596 "/>
<polyline clip-path="url(#clip682)" style="stroke:#000000; stroke-linecap:round; stroke-linejoin:round; stroke-width:4; stroke-opacity:1; fill:none" points="1249.44,820.091 1245.87,808.79 1242.31,797.488 1238.77,786.186 1235.26,774.884 1231.8,763.58 1228.39,752.275 1225.05,740.968 1221.78,729.659 1218.6,718.348 1215.52,707.035 1212.55,695.719 1209.7,684.4 1206.99,673.077 1204.41,661.751 1201.99,650.421 1199.73,639.088 1197.65,627.749 1195.75,616.406 1194.06,605.058 1192.57,593.705 1191.3,582.347 1190.26,570.983 1189.46,559.612 1188.91,548.236 1188.63,536.853 1188.6,525.463 1188.84,514.067 1189.31,502.665 1190.01,491.257 1190.93,479.844 1192.06,468.426 1193.39,457.002 1194.9,445.574 1196.59,434.142 1198.45,422.705 1200.45,411.265 1202.6,399.821 1204.88,388.374 1207.29,376.924 1209.8,365.471 1212.41,354.016 1215.11,342.558 1217.88,331.099 1220.72,319.638 1223.62,308.175 1226.56,296.712 1229.53,285.247 1232.52,273.782 1235.53,262.317 "/>
<polyline clip-path="url(#clip682)" style="stroke:#000000; stroke-linecap:round; stroke-linejoin:round; stroke-width:4; stroke-opacity:1; fill:none" points="1249.44,820.091 1243.37,818.396 1237.31,816.694 1231.26,814.977 1225.24,813.237 1219.25,811.468 1213.3,809.661 1207.4,807.81 1201.55,805.906 1195.77,803.942 1190.06,801.911 1184.43,799.805 1178.89,797.618 1173.44,795.34 1168.1,792.965 1162.87,790.486 1157.77,787.895 1152.79,785.184 1147.95,782.346 1143.25,779.374 1138.7,776.259 1134.32,772.996 1130.1,769.575 1126.06,765.99 1122.21,762.233 1118.55,758.297 1115.08,754.182 1111.79,749.895 1108.68,745.444 1105.74,740.836 1102.96,736.078 1100.33,731.179 1097.85,726.145 1095.51,720.984 1093.29,715.703 1091.19,710.311 1089.21,704.813 1087.33,699.219 1085.54,693.535 1083.85,687.769 1082.23,681.928 1080.69,676.02 1079.21,670.052 1077.79,664.031 1076.42,657.966 1075.08,651.864 1073.78,645.731 1072.5,639.577 1071.24,633.407 1069.99,627.23 "/>
<polyline clip-path="url(#clip682)" style="stroke:#000000; stroke-linecap:round; stroke-linejoin:round; stroke-width:4; stroke-opacity:1; fill:none" points="1442.25,439.621 1449.24,440.918 1456.23,442.204 1463.22,443.47 1470.19,444.704 1477.15,445.896 1484.1,447.035 1491.02,448.112 1497.93,449.115 1504.81,450.034 1511.66,450.859 1518.47,451.579 1525.25,452.184 1532,452.662 1538.7,453.005 1545.35,453.201 1551.96,453.239 1558.52,453.11 1565.02,452.802 1571.46,452.306 1577.85,451.61 1584.17,450.705 1590.42,449.579 1596.6,448.223 1602.7,446.625 1608.73,444.776 1614.69,442.676 1620.56,440.335 1626.37,437.763 1632.11,434.971 1637.79,431.969 1643.4,428.768 1648.96,425.378 1654.46,421.81 1659.91,418.074 1665.31,414.181 1670.67,410.141 1675.99,405.965 1681.26,401.662 1686.5,397.245 1691.71,392.722 1696.89,388.106 1702.05,383.405 1707.18,378.631 1712.29,373.794 1717.39,368.904 1722.48,363.973 1727.55,359.01 1732.62,354.026 1737.68,349.032 "/>
<polyline clip-path="url(#clip682)" style="stroke:#000000; stroke-linecap:round; stroke-linejoin:round; stroke-width:4; stroke-opacity:1; fill:none" points="1442.25,439.621 1443.5,449.525 1444.77,459.423 1446.05,469.312 1447.36,479.186 1448.72,489.041 1450.12,498.871 1451.58,508.672 1453.11,518.439 1454.72,528.166 1456.41,537.85 1458.21,547.485 1460.11,557.066 1462.13,566.588 1464.28,576.047 1466.56,585.437 1468.99,594.754 1471.58,603.993 1474.34,613.148 1477.27,622.216 1480.39,631.191 1483.71,640.068 1487.23,648.843 1490.97,657.51 1494.94,666.064 1499.14,674.501 1503.57,682.822 1508.23,691.03 1513.11,699.13 1518.19,707.128 1523.47,715.028 1528.94,722.835 1534.58,730.554 1540.39,738.19 1546.36,745.748 1552.47,753.233 1558.72,760.649 1565.1,768.001 1571.6,775.295 1578.2,782.535 1584.91,789.727 1591.7,796.874 1598.57,803.982 1605.51,811.056 1612.51,818.101 1619.55,825.121 1626.64,832.122 1633.75,839.108 1640.89,846.084 1648.04,853.055 "/>
<polyline clip-path="url(#clip682)" style="stroke:#000000; stroke-linecap:round; stroke-linejoin:round; stroke-width:4; stroke-opacity:1; fill:none" points="1442.25,439.621 1438.9,452.537 1435.54,465.448 1432.17,478.348 1428.76,491.232 1425.32,504.095 1421.82,516.931 1418.27,529.736 1414.66,542.504 1410.96,555.23 1407.18,567.908 1403.3,580.533 1399.32,593.1 1395.22,605.603 1391,618.038 1386.64,630.399 1382.14,642.681 1377.49,654.878 1372.67,666.985 1367.68,678.997 1362.5,690.909 1357.13,702.715 1351.57,714.409 1345.79,725.988 1339.79,737.445 1333.55,748.775 1327.09,759.979 1320.41,771.061 1313.52,782.027 1306.42,792.882 1299.13,803.632 1291.66,814.28 1284.02,824.834 1276.21,835.298 1268.25,845.677 1260.15,855.977 1251.91,866.203 1243.54,876.36 1235.06,886.454 1226.48,896.49 1217.8,906.472 1209.03,916.408 1200.18,926.301 1191.27,936.157 1182.3,945.981 1173.28,955.779 1164.23,965.555 1155.14,975.316 1146.04,985.066 1136.92,994.811 "/>
<polyline clip-path="url(#clip682)" style="stroke:#000000; stroke-linecap:round; stroke-linejoin:round; stroke-width:4; stroke-opacity:1; fill:none" points="1442.25,439.621 1435.89,438.5 1429.53,437.371 1423.19,436.225 1416.88,435.054 1410.59,433.849 1404.33,432.603 1398.12,431.307 1391.96,429.953 1385.86,428.532 1379.82,427.037 1373.85,425.458 1367.96,423.787 1362.16,422.016 1356.45,420.138 1350.84,418.142 1345.33,416.022 1339.94,413.769 1334.67,411.374 1329.53,408.829 1324.53,406.126 1319.67,403.257 1314.96,400.212 1310.4,396.985 1306.01,393.566 1301.8,389.947 1297.75,386.129 1293.86,382.12 1290.14,377.927 1286.56,373.56 1283.13,369.026 1279.83,364.334 1276.66,359.492 1273.61,354.509 1270.68,349.392 1267.85,344.15 1265.13,338.792 1262.49,333.326 1259.94,327.759 1257.47,322.101 1255.08,316.36 1252.74,310.544 1250.47,304.662 1248.24,298.721 1246.06,292.73 1243.91,286.697 1241.79,280.631 1239.69,274.54 1237.61,268.433 1235.53,262.317 "/>
<polyline clip-path="url(#clip682)" style="stroke:#000000; stroke-linecap:round; stroke-linejoin:round; stroke-width:4; stroke-opacity:1; fill:none" points="1442.25,439.621 1436.13,446.388 1430.01,453.145 1423.88,459.883 1417.73,466.591 1411.57,473.26 1405.38,479.879 1399.16,486.441 1392.9,492.933 1386.61,499.347 1380.27,505.673 1373.88,511.901 1367.44,518.022 1360.94,524.025 1354.37,529.9 1347.74,535.638 1341.03,541.23 1334.24,546.665 1327.37,551.933 1320.41,557.025 1313.35,561.93 1306.2,566.64 1298.94,571.145 1291.58,575.433 1284.1,579.497 1276.5,583.325 1268.79,586.919 1260.96,590.288 1253.02,593.442 1244.98,596.389 1236.84,599.141 1228.6,601.706 1220.28,604.096 1211.88,606.319 1203.39,608.385 1194.83,610.304 1186.2,612.086 1177.51,613.74 1168.76,615.278 1159.95,616.707 1151.09,618.038 1142.19,619.282 1133.25,620.447 1124.28,621.543 1115.28,622.58 1106.25,623.569 1097.2,624.518 1088.14,625.439 1079.06,626.339 1069.99,627.23 "/>
<polyline clip-path="url(#clip682)" style="stroke:#000000; stroke-linecap:round; stroke-linejoin:round; stroke-width:4; stroke-opacity:1; fill:none" points="1442.25,439.621 1431.54,443.152 1420.83,446.672 1410.12,450.169 1399.41,453.634 1388.7,457.055 1377.99,460.421 1367.27,463.721 1356.56,466.945 1345.84,470.081 1335.12,473.118 1324.39,476.046 1313.67,478.852 1302.94,481.528 1292.21,484.06 1281.48,486.44 1270.74,488.654 1259.99,490.694 1249.25,492.546 1238.5,494.202 1227.74,495.649 1216.98,496.877 1206.21,497.874 1195.44,498.631 1184.67,499.135 1173.88,499.376 1163.1,499.354 1152.3,499.081 1141.5,498.566 1130.7,497.821 1119.89,496.856 1109.07,495.684 1098.25,494.313 1087.43,492.757 1076.6,491.025 1065.77,489.128 1054.94,487.078 1044.1,484.886 1033.26,482.561 1022.42,480.116 1011.58,477.562 1000.73,474.909 989.878,472.168 979.027,469.35 968.175,466.467 957.321,463.528 946.466,460.546 935.611,457.531 924.755,454.494 913.898,451.446 "/>
<polyline clip-path="url(#clip682)" style="stroke:#000000; stroke-linecap:round; stroke-linejoin:round; stroke-width:4; stroke-opacity:1; fill:none" points="1737.68,349.032 1739.2,355.853 1740.7,362.672 1742.19,369.484 1743.64,376.287 1745.05,383.079 1746.41,389.856 1747.7,396.616 1748.92,403.355 1750.05,410.07 1751.09,416.759 1752.03,423.418 1752.85,430.045 1753.54,436.637 1754.09,443.19 1754.5,449.702 1754.75,456.17 1754.83,462.591 1754.72,468.962 1754.43,475.28 1753.94,481.542 1753.24,487.746 1752.31,493.887 1751.15,499.964 1749.75,505.973 1748.1,511.911 1746.19,517.779 1744.04,523.579 1741.66,529.315 1739.06,534.989 1736.24,540.604 1733.22,546.163 1730.02,551.669 1726.63,557.125 1723.07,562.533 1719.36,567.898 1715.5,573.222 1711.5,578.507 1707.37,583.757 1703.13,588.975 1698.78,594.163 1694.34,599.325 1689.81,604.463 1685.21,609.58 1680.55,614.68 1675.83,619.765 1671.07,624.839 1666.28,629.903 1661.46,634.962 1656.64,640.018 "/>
<polyline clip-path="url(#clip682)" style="stroke:#000000; stroke-linecap:round; stroke-linejoin:round; stroke-width:4; stroke-opacity:1; fill:none" points="1737.68,349.032 1739.09,359.894 1740.49,370.755 1741.87,381.611 1743.21,392.462 1744.52,403.305 1745.76,414.139 1746.95,424.961 1748.05,435.769 1749.07,446.563 1750,457.339 1750.81,468.095 1751.51,478.831 1752.08,489.543 1752.51,500.231 1752.78,510.892 1752.9,521.523 1752.84,532.124 1752.59,542.693 1752.16,553.227 1751.51,563.724 1750.66,574.183 1749.57,584.602 1748.25,594.978 1746.68,605.31 1744.85,615.597 1742.76,625.837 1740.42,636.033 1737.85,646.187 1735.05,656.3 1732.03,666.375 1728.81,676.413 1725.39,686.417 1721.79,696.389 1718.02,706.329 1714.09,716.241 1710,726.126 1705.77,735.986 1701.42,745.822 1696.94,755.638 1692.36,765.435 1687.68,775.214 1682.91,784.978 1678.07,794.728 1673.16,804.467 1668.2,814.196 1663.2,823.918 1658.16,833.633 1653.1,843.345 1648.04,853.055 "/>
<polyline clip-path="url(#clip682)" style="stroke:#000000; stroke-linecap:round; stroke-linejoin:round; stroke-width:4; stroke-opacity:1; fill:none" points="1737.68,349.032 1728.35,355.728 1719.02,362.414 1709.68,369.079 1700.32,375.713 1690.96,382.305 1681.57,388.846 1672.17,395.324 1662.73,401.73 1653.27,408.053 1643.78,414.282 1634.26,420.408 1624.69,426.42 1615.08,432.307 1605.42,438.06 1595.72,443.667 1585.96,449.119 1576.14,454.404 1566.26,459.514 1556.32,464.437 1546.31,469.163 1536.23,473.681 1526.07,477.982 1515.84,482.054 1505.52,485.888 1495.11,489.474 1484.63,492.811 1474.06,495.91 1463.41,498.78 1452.68,501.433 1441.89,503.878 1431.02,506.127 1420.09,508.188 1409.1,510.074 1398.06,511.793 1386.96,513.357 1375.81,514.776 1364.61,516.06 1353.37,517.219 1342.09,518.264 1330.78,519.206 1319.43,520.055 1308.06,520.82 1296.66,521.513 1285.24,522.143 1273.8,522.722 1262.34,523.259 1250.88,523.766 1239.41,524.251 1227.93,524.726 "/>
<polyline clip-path="url(#clip682)" style="stroke:#000000; stroke-linecap:round; stroke-linejoin:round; stroke-width:4; stroke-opacity:1; fill:none" points="1737.68,349.032 1726.87,350.504 1716.07,351.966 1705.27,353.406 1694.47,354.814 1683.68,356.178 1672.9,357.488 1662.13,358.734 1651.38,359.904 1640.64,360.987 1629.91,361.973 1619.21,362.851 1608.52,363.61 1597.86,364.239 1587.22,364.728 1576.61,365.066 1566.03,365.241 1555.47,365.244 1544.95,365.062 1534.46,364.686 1524.01,364.105 1513.59,363.308 1503.21,362.284 1492.88,361.021 1482.59,359.511 1472.34,357.741 1462.13,355.712 1451.97,353.435 1441.85,350.92 1431.77,348.178 1421.73,345.22 1411.72,342.056 1401.75,338.698 1391.81,335.156 1381.9,331.442 1372.01,327.565 1362.15,323.536 1352.32,319.368 1342.51,315.069 1332.72,310.652 1322.95,306.126 1313.19,301.504 1303.45,296.795 1293.72,292.01 1284.01,287.16 1274.3,282.256 1264.6,277.309 1254.91,272.33 1245.22,267.329 1235.53,262.317 "/>
<polyline clip-path="url(#clip682)" style="stroke:#000000; stroke-linecap:round; stroke-linejoin:round; stroke-width:4; stroke-opacity:1; fill:none" points="1656.64,640.018 1647.04,640.842 1637.44,641.656 1627.84,642.448 1618.25,643.209 1608.68,643.928 1599.12,644.593 1589.57,645.195 1580.05,645.723 1570.55,646.166 1561.07,646.513 1551.63,646.755 1542.21,646.88 1532.83,646.879 1523.49,646.739 1514.18,646.451 1504.92,646.004 1495.7,645.388 1486.54,644.592 1477.42,643.605 1468.36,642.417 1459.35,641.017 1450.41,639.394 1441.52,637.539 1432.71,635.44 1423.96,633.087 1415.28,630.48 1406.66,627.63 1398.11,624.546 1389.61,621.241 1381.18,617.723 1372.8,614.004 1364.47,610.095 1356.18,606.005 1347.95,601.746 1339.75,597.328 1331.6,592.762 1323.48,588.058 1315.4,583.227 1307.35,578.28 1299.33,573.226 1291.33,568.077 1283.35,562.844 1275.4,557.536 1267.46,552.165 1259.54,546.741 1251.63,541.274 1243.72,535.776 1235.83,530.256 1227.93,524.726 "/>
<polyline clip-path="url(#clip682)" style="stroke:#000000; stroke-linecap:round; stroke-linejoin:round; stroke-width:4; stroke-opacity:1; fill:none" points="1656.64,640.018 1645.85,634.759 1635.07,629.492 1624.3,624.208 1613.55,618.901 1602.83,613.56 1592.15,608.179 1581.51,602.748 1570.93,597.261 1560.4,591.708 1549.94,586.081 1539.55,580.374 1529.24,574.576 1519.02,568.68 1508.9,562.678 1498.88,556.562 1488.97,550.323 1479.17,543.954 1469.5,537.445 1459.96,530.79 1450.56,523.98 1441.31,517.006 1432.21,509.861 1423.27,502.536 1414.5,495.024 1405.91,487.316 1397.49,479.412 1389.24,471.32 1381.15,463.049 1373.22,454.606 1365.43,446 1357.78,437.239 1350.26,428.331 1342.87,419.284 1335.59,410.106 1328.42,400.806 1321.36,391.392 1314.39,381.871 1307.51,372.253 1300.71,362.544 1293.98,352.754 1287.32,342.891 1280.72,332.962 1274.17,322.976 1267.66,312.941 1261.19,302.865 1254.75,292.757 1248.33,282.624 1241.93,272.475 1235.53,262.317 "/>
<polyline clip-path="url(#clip682)" style="stroke:#000000; stroke-linecap:round; stroke-linejoin:round; stroke-width:4; stroke-opacity:1; fill:none" points="1656.64,640.018 1644.6,643.046 1632.55,646.064 1620.51,649.059 1608.47,652.021 1596.42,654.94 1584.38,657.804 1572.34,660.602 1560.31,663.323 1548.27,665.957 1536.24,668.492 1524.21,670.917 1512.18,673.222 1500.15,675.395 1488.13,677.425 1476.11,679.302 1464.1,681.014 1452.08,682.551 1440.08,683.902 1428.07,685.055 1416.07,686 1404.08,686.725 1392.09,687.221 1380.11,687.475 1368.13,687.476 1356.16,687.215 1344.19,686.692 1332.23,685.916 1320.27,684.899 1308.32,683.651 1296.37,682.184 1284.43,680.509 1272.5,678.637 1260.56,676.578 1248.63,674.343 1236.71,671.944 1224.78,669.392 1212.86,666.697 1200.95,663.871 1189.03,660.923 1177.12,657.866 1165.21,654.711 1153.3,651.468 1141.4,648.148 1129.49,644.762 1117.59,641.321 1105.69,637.837 1093.79,634.319 1081.89,630.78 1069.99,627.23 "/>
<polyline clip-path="url(#clip682)" style="stroke:#000000; stroke-linecap:round; stroke-linejoin:round; stroke-width:4; stroke-opacity:1; fill:none" points="1648.04,853.055 1638.48,859.119 1628.93,865.172 1619.37,871.203 1609.8,877.203 1600.22,883.161 1590.62,889.066 1581.01,894.907 1571.38,900.675 1561.72,906.358 1552.04,911.946 1542.32,917.428 1532.58,922.793 1522.8,928.032 1512.98,933.134 1503.12,938.088 1493.22,942.883 1483.27,947.509 1473.27,951.955 1463.21,956.211 1453.11,960.266 1442.94,964.11 1432.71,967.732 1422.42,971.121 1412.06,974.267 1401.62,977.16 1391.12,979.8 1380.56,982.197 1369.92,984.361 1359.23,986.303 1348.47,988.034 1337.67,989.564 1326.8,990.903 1315.89,992.063 1304.93,993.054 1293.93,993.886 1282.89,994.571 1271.81,995.118 1260.69,995.538 1249.54,995.842 1238.36,996.04 1227.16,996.143 1215.93,996.162 1204.68,996.106 1193.42,995.987 1182.13,995.815 1170.84,995.601 1159.54,995.356 1148.23,995.089 1136.92,994.811 "/>
<polyline clip-path="url(#clip682)" style="stroke:#000000; stroke-linecap:round; stroke-linejoin:round; stroke-width:4; stroke-opacity:1; fill:none" points="1648.04,853.055 1637.44,848.947 1626.84,844.83 1616.26,840.696 1605.7,836.536 1595.17,832.341 1584.67,828.103 1574.22,823.814 1563.81,819.463 1553.45,815.044 1543.15,810.547 1532.93,805.963 1522.77,801.284 1512.7,796.502 1502.71,791.607 1492.82,786.592 1483.04,781.446 1473.35,776.163 1463.79,770.732 1454.34,765.146 1445.03,759.396 1435.85,753.472 1426.81,747.368 1417.92,741.073 1409.18,734.58 1400.61,727.879 1392.2,720.971 1383.94,713.865 1375.83,706.568 1367.87,699.09 1360.03,691.439 1352.33,683.624 1344.75,675.654 1337.28,667.536 1329.93,659.28 1322.67,650.895 1315.51,642.388 1308.43,633.769 1301.44,625.047 1294.52,616.229 1287.67,607.325 1280.88,598.343 1274.14,589.293 1267.45,580.181 1260.8,571.018 1254.19,561.811 1247.6,552.57 1241.03,543.303 1234.48,534.019 1227.93,524.726 "/>
<polyline clip-path="url(#clip682)" style="stroke:#000000; stroke-linecap:round; stroke-linejoin:round; stroke-width:4; stroke-opacity:1; fill:none" points="1648.04,853.055 1635.04,851.511 1622.05,849.957 1609.07,848.382 1596.1,846.777 1583.14,845.13 1570.21,843.433 1557.3,841.674 1544.42,839.844 1531.57,837.932 1518.75,835.928 1505.98,833.822 1493.25,831.604 1480.56,829.263 1467.93,826.789 1455.36,824.172 1442.84,821.402 1430.39,818.468 1418.01,815.361 1405.7,812.07 1393.46,808.585 1381.3,804.895 1369.23,800.991 1357.25,796.862 1345.36,792.498 1333.56,787.889 1321.86,783.036 1310.25,777.947 1298.73,772.634 1287.29,767.106 1275.93,761.374 1264.65,755.448 1253.44,749.338 1242.3,743.054 1231.22,736.607 1220.2,730.006 1209.23,723.263 1198.32,716.387 1187.46,709.388 1176.64,702.276 1165.86,695.063 1155.12,687.757 1144.41,680.37 1133.72,672.911 1123.06,665.392 1112.42,657.82 1101.8,650.208 1091.19,642.566 1080.59,634.903 1069.99,627.23 "/>
<polyline clip-path="url(#clip682)" style="stroke:#000000; stroke-linecap:round; stroke-linejoin:round; stroke-width:4; stroke-opacity:1; fill:none" points="1136.92,994.811 1136.19,1003.33 1135.44,1011.84 1134.68,1020.35 1133.89,1028.84 1133.06,1037.31 1132.18,1045.75 1131.24,1054.16 1130.23,1062.54 1129.15,1070.88 1127.98,1079.17 1126.71,1087.41 1125.33,1095.59 1123.84,1103.72 1122.22,1111.77 1120.46,1119.76 1118.56,1127.67 1116.5,1135.5 1114.28,1143.24 1111.89,1150.9 1109.3,1158.45 1106.53,1165.9 1103.55,1173.25 1100.35,1180.49 1096.93,1187.61 1093.28,1194.6 1089.4,1201.48 1085.29,1208.24 1080.97,1214.89 1076.44,1221.43 1071.72,1227.87 1066.82,1234.21 1061.74,1240.46 1056.49,1246.63 1051.09,1252.71 1045.54,1258.72 1039.86,1264.66 1034.05,1270.53 1028.12,1276.34 1022.09,1282.09 1015.96,1287.8 1009.74,1293.45 1003.45,1299.07 997.083,1304.65 990.661,1310.2 984.19,1315.73 977.68,1321.24 971.141,1326.73 964.583,1332.21 958.015,1337.68 "/>
<polyline clip-path="url(#clip682)" style="stroke:#000000; stroke-linecap:round; stroke-linejoin:round; stroke-width:4; stroke-opacity:1; fill:none" points="1136.92,994.811 1142.01,985.843 1147.09,976.873 1152.14,967.898 1157.16,958.918 1162.14,949.928 1167.07,940.929 1171.93,931.917 1176.72,922.89 1181.42,913.847 1186.02,904.785 1190.52,895.702 1194.89,886.596 1199.14,877.465 1203.25,868.308 1207.2,859.12 1211,849.902 1214.62,840.65 1218.06,831.363 1221.31,822.038 1224.35,812.674 1227.18,803.268 1229.78,793.818 1232.14,784.322 1234.25,774.779 1236.11,765.185 1237.71,755.542 1239.06,745.85 1240.18,736.113 1241.07,726.332 1241.74,716.509 1242.21,706.647 1242.48,696.747 1242.57,686.811 1242.49,676.842 1242.25,666.842 1241.86,656.813 1241.32,646.757 1240.66,636.676 1239.88,626.571 1238.99,616.446 1238.01,606.302 1236.94,596.142 1235.79,585.967 1234.58,575.779 1233.31,565.581 1232.01,555.375 1230.67,545.162 1229.3,534.945 1227.93,524.726 "/>
<polyline clip-path="url(#clip682)" style="stroke:#000000; stroke-linecap:round; stroke-linejoin:round; stroke-width:4; stroke-opacity:1; fill:none" points="1136.92,994.811 1132.32,987.899 1127.73,980.985 1123.16,974.067 1118.62,967.143 1114.12,960.211 1109.68,953.269 1105.31,946.316 1101.01,939.348 1096.79,932.365 1092.67,925.365 1088.66,918.344 1084.77,911.303 1081.01,904.237 1077.39,897.146 1073.92,890.027 1070.61,882.879 1067.48,875.7 1064.53,868.487 1061.77,861.239 1059.22,853.953 1056.88,846.628 1054.77,839.262 1052.9,831.853 1051.27,824.398 1049.91,816.897 1048.8,809.348 1047.94,801.754 1047.32,794.117 1046.92,786.438 1046.74,778.72 1046.77,770.965 1046.99,763.175 1047.39,755.351 1047.97,747.496 1048.7,739.611 1049.59,731.699 1050.62,723.761 1051.78,715.799 1053.06,707.816 1054.44,699.814 1055.93,691.793 1057.49,683.757 1059.14,675.707 1060.85,667.646 1062.61,659.574 1064.42,651.495 1066.25,643.41 1068.11,635.321 1069.99,627.23 "/>
<polyline clip-path="url(#clip682)" style="stroke:#000000; stroke-linecap:round; stroke-linejoin:round; stroke-width:4; stroke-opacity:1; fill:none" points="1136.92,994.811 1129.33,984.971 1121.74,975.127 1114.18,965.275 1106.64,955.41 1099.15,945.529 1091.71,935.627 1084.32,925.699 1077.01,915.743 1069.78,905.753 1062.64,895.726 1055.61,885.657 1048.68,875.543 1041.88,865.378 1035.21,855.159 1028.68,844.882 1022.3,834.542 1016.08,824.136 1010.04,813.659 1004.18,803.107 998.514,792.476 993.05,781.762 987.798,770.96 982.77,760.066 977.976,749.077 973.424,737.988 969.116,726.799 965.041,715.514 961.189,704.138 957.55,692.674 954.115,681.127 950.872,669.501 947.811,657.8 944.923,646.028 942.198,634.189 939.625,622.288 937.194,610.329 934.894,598.316 932.717,586.252 930.651,574.143 928.686,561.992 926.813,549.803 925.021,537.582 923.3,525.331 921.64,513.055 920.031,500.758 918.462,488.445 916.924,476.119 915.406,463.785 913.898,451.446 "/>
<polyline clip-path="url(#clip682)" style="stroke:#000000; stroke-linecap:round; stroke-linejoin:round; stroke-width:4; stroke-opacity:1; fill:none" points="662.317,635.596 674.493,636.562 686.667,637.518 698.837,638.451 711,639.353 723.155,640.211 735.299,641.016 747.431,641.756 759.548,642.42 771.648,642.999 783.729,643.48 795.789,643.854 807.826,644.11 819.837,644.236 831.821,644.223 843.776,644.059 855.699,643.733 867.588,643.235 879.441,642.554 891.256,641.68 903.031,640.601 914.764,639.306 926.453,637.786 938.095,636.029 949.689,634.024 961.232,631.761 972.724,629.241 984.169,626.473 995.566,623.468 1006.92,620.237 1018.23,616.791 1029.5,613.14 1040.73,609.295 1051.93,605.268 1063.1,601.068 1074.23,596.707 1085.33,592.195 1096.4,587.544 1107.45,582.763 1118.48,577.863 1129.49,572.856 1140.47,567.753 1151.44,562.563 1162.4,557.297 1173.34,551.967 1184.27,546.584 1195.19,541.157 1206.11,535.698 1217.02,530.217 1227.93,524.726 "/>
<polyline clip-path="url(#clip682)" style="stroke:#000000; stroke-linecap:round; stroke-linejoin:round; stroke-width:4; stroke-opacity:1; fill:none" points="662.317,635.596 670.704,638.715 679.092,641.823 687.478,644.909 695.864,647.961 704.249,650.97 712.633,653.925 721.016,656.813 729.396,659.625 737.776,662.348 746.153,664.974 754.528,667.489 762.9,669.884 771.27,672.147 779.637,674.268 788,676.235 796.361,678.038 804.717,679.665 813.07,681.106 821.419,682.35 829.763,683.385 838.103,684.2 846.439,684.786 854.769,685.13 863.094,685.222 871.414,685.051 879.728,684.618 888.037,683.932 896.342,683.005 904.641,681.848 912.936,680.471 921.227,678.886 929.514,677.104 937.797,675.135 946.076,672.991 954.352,670.682 962.624,668.22 970.894,665.615 979.161,662.879 987.426,660.022 995.688,657.055 1003.95,653.99 1012.21,650.837 1020.46,647.607 1028.72,644.311 1036.97,640.961 1045.23,637.566 1053.48,634.139 1061.73,630.69 1069.99,627.23 "/>
<polyline clip-path="url(#clip682)" style="stroke:#000000; stroke-linecap:round; stroke-linejoin:round; stroke-width:4; stroke-opacity:1; fill:none" points="662.317,635.596 669.395,634.493 676.466,633.381 683.524,632.251 690.563,631.095 697.576,629.903 704.556,628.667 711.498,627.378 718.394,626.027 725.238,624.605 732.024,623.103 738.746,621.513 745.396,619.826 751.968,618.032 758.456,616.123 764.853,614.091 771.153,611.925 777.35,609.618 783.436,607.161 789.406,604.544 795.253,601.759 800.97,598.797 806.551,595.649 811.99,592.307 817.279,588.761 822.413,585.002 827.392,581.032 832.223,576.858 836.91,572.49 841.462,567.936 845.884,563.204 850.182,558.305 854.365,553.246 858.437,548.036 862.405,542.686 866.276,537.202 870.057,531.594 873.753,525.871 877.372,520.043 880.919,514.116 884.402,508.102 887.826,502.007 891.198,495.842 894.525,489.615 897.814,483.334 901.069,477.01 904.299,470.65 907.51,464.263 910.707,457.859 913.898,451.446 "/>
<polyline clip-path="url(#clip682)" style="stroke:#000000; stroke-linecap:round; stroke-linejoin:round; stroke-width:4; stroke-opacity:1; fill:none" points="1227.93,524.726 1220.77,526.435 1213.62,528.132 1206.47,529.809 1199.33,531.453 1192.2,533.055 1185.08,534.603 1177.97,536.088 1170.89,537.497 1163.82,538.821 1156.78,540.049 1149.76,541.17 1142.77,542.173 1135.8,543.049 1128.87,543.785 1121.98,544.372 1115.12,544.799 1108.3,545.055 1101.53,545.129 1094.8,545.011 1088.12,544.69 1081.48,544.155 1074.9,543.397 1068.38,542.403 1061.91,541.163 1055.5,539.667 1049.15,537.916 1042.86,535.919 1036.62,533.687 1030.44,531.23 1024.3,528.56 1018.21,525.687 1012.17,522.622 1006.17,519.375 1000.21,515.958 994.289,512.38 988.401,508.652 982.545,504.786 976.719,500.791 970.921,496.679 965.148,492.46 959.397,488.145 953.666,483.745 947.952,479.27 942.254,474.73 936.568,470.138 930.892,465.502 925.223,460.835 919.559,456.146 913.898,451.446 "/>
<polyline clip-path="url(#clip682)" style="stroke:#000000; stroke-linecap:round; stroke-linejoin:round; stroke-width:4; stroke-opacity:1; fill:none" points="1235.53,262.317 1230.63,269.013 1225.73,275.7 1220.82,282.367 1215.89,289.006 1210.94,295.608 1205.96,302.162 1200.94,308.659 1195.89,315.09 1190.8,321.446 1185.65,327.716 1180.45,333.892 1175.18,339.964 1169.85,345.922 1164.45,351.758 1158.97,357.461 1153.41,363.022 1147.76,368.432 1142.01,373.681 1136.16,378.76 1130.21,383.66 1124.15,388.37 1117.97,392.882 1111.66,397.186 1105.23,401.272 1098.67,405.132 1091.97,408.765 1085.15,412.181 1078.2,415.388 1071.14,418.398 1063.96,421.218 1056.68,423.858 1049.3,426.329 1041.82,428.638 1034.26,430.796 1026.61,432.813 1018.89,434.697 1011.09,436.458 1003.22,438.106 995.297,439.649 987.316,441.099 979.284,442.463 971.208,443.751 963.093,444.973 954.945,446.139 946.769,447.257 938.571,448.337 930.356,449.389 922.13,450.423 913.898,451.446 "/>
<path clip-path="url(#clip682)" d="M935.463 872.244 L921.483 848.03 L893.523 848.03 L879.544 872.244 L893.523 896.458 L921.483 896.458 L935.463 872.244 L935.463 872.244  Z" fill="#ffff00" fill-rule="evenodd" fill-opacity="1"/>
<polyline clip-path="url(#clip682)" style="stroke:#000000; stroke-linecap:round; stroke-linejoin:round; stroke-width:4; stroke-opacity:1; fill:none" points="935.463,872.244 921.483,848.03 893.523,848.03 879.544,872.244 893.523,896.458 921.483,896.458 935.463,872.244 "/>
<path clip-path="url(#clip682)" d="M1450.8 1182.23 L1435.75 1156.15 L1405.64 1156.15 L1390.58 1182.23 L1405.64 1208.3 L1435.75 1208.3 L1450.8 1182.23 L1450.8 1182.23  Z" fill="#ffed00" fill-rule="evenodd" fill-opacity="1"/>
<polyline clip-path="url(#clip682)" style="stroke:#000000; stroke-linecap:round; stroke-linejoin:round; stroke-width:4; stroke-opacity:1; fill:none" points="1450.8,1182.23 1435.75,1156.15 1405.64,1156.15 1390.58,1182.23 1405.64,1208.3 1435.75,1208.3 1450.8,1182.23 "/>
<path clip-path="url(#clip682)" d="M1509.07 801.421 L1492.94 773.482 L1460.68 773.482 L1444.55 801.421 L1460.68 829.36 L1492.94 829.36 L1509.07 801.421 L1509.07 801.421  Z" fill="#ffdb00" fill-rule="evenodd" fill-opacity="1"/>
<polyline clip-path="url(#clip682)" style="stroke:#000000; stroke-linecap:round; stroke-linejoin:round; stroke-width:4; stroke-opacity:1; fill:none" points="1509.07,801.421 1492.94,773.482 1460.68,773.482 1444.55,801.421 1460.68,829.36 1492.94,829.36 1509.07,801.421 "/>
<path clip-path="url(#clip682)" d="M1283.86 820.091 L1266.65 790.289 L1232.24 790.289 L1215.03 820.091 L1232.24 849.892 L1266.65 849.892 L1283.86 820.091 L1283.86 820.091  Z" fill="#ffc800" fill-rule="evenodd" fill-opacity="1"/>
<polyline clip-path="url(#clip682)" style="stroke:#000000; stroke-linecap:round; stroke-linejoin:round; stroke-width:4; stroke-opacity:1; fill:none" points="1283.86,820.091 1266.65,790.289 1232.24,790.289 1215.03,820.091 1232.24,849.892 1266.65,849.892 1283.86,820.091 "/>
<path clip-path="url(#clip682)" d="M1478.81 439.621 L1460.53 407.957 L1423.97 407.957 L1405.69 439.621 L1423.97 471.285 L1460.53 471.285 L1478.81 439.621 L1478.81 439.621  Z" fill="#ffb600" fill-rule="evenodd" fill-opacity="1"/>
<polyline clip-path="url(#clip682)" style="stroke:#000000; stroke-linecap:round; stroke-linejoin:round; stroke-width:4; stroke-opacity:1; fill:none" points="1478.81,439.621 1460.53,407.957 1423.97,407.957 1405.69,439.621 1423.97,471.285 1460.53,471.285 1478.81,439.621 "/>
<path clip-path="url(#clip682)" d="M1776.4 349.032 L1757.04 315.505 L1718.33 315.505 L1698.97 349.032 L1718.33 382.559 L1757.04 382.559 L1776.4 349.032 L1776.4 349.032  Z" fill="#ffa400" fill-rule="evenodd" fill-opacity="1"/>
<polyline clip-path="url(#clip682)" style="stroke:#000000; stroke-linecap:round; stroke-linejoin:round; stroke-width:4; stroke-opacity:1; fill:none" points="1776.4,349.032 1757.04,315.505 1718.33,315.505 1698.97,349.032 1718.33,382.559 1757.04,382.559 1776.4,349.032 "/>
<path clip-path="url(#clip682)" d="M1697.5 640.018 L1677.07 604.629 L1636.21 604.629 L1615.78 640.018 L1636.21 675.407 L1677.07 675.407 L1697.5 640.018 L1697.5 640.018  Z" fill="#ff9200" fill-rule="evenodd" fill-opacity="1"/>
<polyline clip-path="url(#clip682)" style="stroke:#000000; stroke-linecap:round; stroke-linejoin:round; stroke-width:4; stroke-opacity:1; fill:none" points="1697.5,640.018 1677.07,604.629 1636.21,604.629 1615.78,640.018 1636.21,675.407 1677.07,675.407 1697.5,640.018 "/>
<path clip-path="url(#clip682)" d="M1691.05 853.055 L1669.54 815.804 L1626.53 815.804 L1605.02 853.055 L1626.53 890.307 L1669.54 890.307 L1691.05 853.055 L1691.05 853.055  Z" fill="#ff8000" fill-rule="evenodd" fill-opacity="1"/>
<polyline clip-path="url(#clip682)" style="stroke:#000000; stroke-linecap:round; stroke-linejoin:round; stroke-width:4; stroke-opacity:1; fill:none" points="1691.05,853.055 1669.54,815.804 1626.53,815.804 1605.02,853.055 1626.53,890.307 1669.54,890.307 1691.05,853.055 "/>
<path clip-path="url(#clip682)" d="M1182.09 994.811 L1159.51 955.697 L1114.34 955.697 L1091.76 994.811 L1114.34 1033.93 L1159.51 1033.93 L1182.09 994.811 L1182.09 994.811  Z" fill="#ff6d00" fill-rule="evenodd" fill-opacity="1"/>
<polyline clip-path="url(#clip682)" style="stroke:#000000; stroke-linecap:round; stroke-linejoin:round; stroke-width:4; stroke-opacity:1; fill:none" points="1182.09,994.811 1159.51,955.697 1114.34,955.697 1091.76,994.811 1114.34,1033.93 1159.51,1033.93 1182.09,994.811 "/>
<path clip-path="url(#clip682)" d="M1040.4 1337.68 L999.206 1266.34 L916.824 1266.34 L875.633 1337.68 L916.824 1409.03 L999.206 1409.03 L1040.4 1337.68 L1040.4 1337.68  Z" fill="#ff5b00" fill-rule="evenodd" fill-opacity="1"/>
<polyline clip-path="url(#clip682)" style="stroke:#000000; stroke-linecap:round; stroke-linejoin:round; stroke-width:4; stroke-opacity:1; fill:none" points="1040.4,1337.68 999.206,1266.34 916.824,1266.34 875.633,1337.68 916.824,1409.03 999.206,1409.03 1040.4,1337.68 "/>
<path clip-path="url(#clip682)" d="M748.444 635.596 L705.381 561.008 L619.254 561.008 L576.19 635.596 L619.254 710.184 L705.381 710.184 L748.444 635.596 L748.444 635.596  Z" fill="#ff4900" fill-rule="evenodd" fill-opacity="1"/>
<polyline clip-path="url(#clip682)" style="stroke:#000000; stroke-linecap:round; stroke-linejoin:round; stroke-width:4; stroke-opacity:1; fill:none" points="748.444,635.596 705.381,561.008 619.254,561.008 576.19,635.596 619.254,710.184 705.381,710.184 748.444,635.596 "/>
<path clip-path="url(#clip682)" d="M1317.8 524.726 L1272.87 446.895 L1183 446.895 L1138.06 524.726 L1183 602.557 L1272.87 602.557 L1317.8 524.726 L1317.8 524.726  Z" fill="#ff3700" fill-rule="evenodd" fill-opacity="1"/>
<polyline clip-path="url(#clip682)" style="stroke:#000000; stroke-linecap:round; stroke-linejoin:round; stroke-width:4; stroke-opacity:1; fill:none" points="1317.8,524.726 1272.87,446.895 1183,446.895 1138.06,524.726 1183,602.557 1272.87,602.557 1317.8,524.726 1317.8,524.726 "/>
<path clip-path="url(#clip682)" d="M1329.14 262.317 L1282.34 181.243 L1188.72 181.243 L1141.91 262.317 L1188.72 343.391 L1282.34 343.391 L1329.14 262.317 L1329.14 262.317  Z" fill="#ff2400" fill-rule="evenodd" fill-opacity="1"/>
<polyline clip-path="url(#clip682)" style="stroke:#000000; stroke-linecap:round; stroke-linejoin:round; stroke-width:4; stroke-opacity:1; fill:none" points="1329.14,262.317 1282.34,181.243 1188.72,181.243 1141.91,262.317 1188.72,343.391 1282.34,343.391 1329.14,262.317 "/>
<path clip-path="url(#clip682)" d="M1167.35 627.23 L1118.67 542.913 L1021.31 542.913 L972.625 627.23 L1021.31 711.546 L1118.67 711.546 L1167.35 627.23 L1167.35 627.23  Z" fill="#ff1200" fill-rule="evenodd" fill-opacity="1"/>
<polyline clip-path="url(#clip682)" style="stroke:#000000; stroke-linecap:round; stroke-linejoin:round; stroke-width:4; stroke-opacity:1; fill:none" points="1167.35,627.23 1118.67,542.913 1021.31,542.913 972.625,627.23 1021.31,711.546 1118.67,711.546 1167.35,627.23 "/>
<path clip-path="url(#clip682)" d="M1015 451.446 L964.451 363.886 L863.346 363.886 L812.793 451.446 L863.346 539.006 L964.451 539.006 L1015 451.446 L1015 451.446  Z" fill="#ff0000" fill-rule="evenodd" fill-opacity="1"/>
<polyline clip-path="url(#clip682)" style="stroke:#000000; stroke-linecap:round; stroke-linejoin:round; stroke-width:4; stroke-opacity:1; fill:none" points="1015,451.446 964.451,363.886 863.346,363.886 812.793,451.446 863.346,539.006 964.451,539.006 1015,451.446 "/>
<circle clip-path="url(#clip682)" style="fill:#ffb600; stroke:none; fill-opacity:0" cx="907.503" cy="872.244" r="2"/>
<circle clip-path="url(#clip682)" style="fill:#ffb600; stroke:none; fill-opacity:0" cx="1420.69" cy="1182.23" r="2"/>
<circle clip-path="url(#clip682)" style="fill:#ffb600; stroke:none; fill-opacity:0" cx="1476.81" cy="801.421" r="2"/>
<circle clip-path="url(#clip682)" style="fill:#ffb600; stroke:none; fill-opacity:0" cx="1249.44" cy="820.091" r="2"/>
<circle clip-path="url(#clip682)" style="fill:#ffb600; stroke:none; fill-opacity:0" cx="1442.25" cy="439.621" r="2"/>
<circle clip-path="url(#clip682)" style="fill:#ffb600; stroke:none; fill-opacity:0" cx="1737.68" cy="349.032" r="2"/>
<circle clip-path="url(#clip682)" style="fill:#ffb600; stroke:none; fill-opacity:0" cx="1656.64" cy="640.018" r="2"/>
<circle clip-path="url(#clip682)" style="fill:#ffb600; stroke:none; fill-opacity:0" cx="1648.04" cy="853.055" r="2"/>
<circle clip-path="url(#clip682)" style="fill:#ffb600; stroke:none; fill-opacity:0" cx="1136.92" cy="994.811" r="2"/>
<circle clip-path="url(#clip682)" style="fill:#ffb600; stroke:none; fill-opacity:0" cx="958.015" cy="1337.68" r="2"/>
<circle clip-path="url(#clip682)" style="fill:#ffb600; stroke:none; fill-opacity:0" cx="662.317" cy="635.596" r="2"/>
<circle clip-path="url(#clip682)" style="fill:#ffb600; stroke:none; fill-opacity:0" cx="1227.93" cy="524.726" r="2"/>
<circle clip-path="url(#clip682)" style="fill:#ffb600; stroke:none; fill-opacity:0" cx="1235.53" cy="262.317" r="2"/>
<circle clip-path="url(#clip682)" style="fill:#ffb600; stroke:none; fill-opacity:0" cx="1069.99" cy="627.23" r="2"/>
<circle clip-path="url(#clip682)" style="fill:#ffb600; stroke:none; fill-opacity:0" cx="913.898" cy="451.446" r="2"/>
<path clip-path="url(#clip680)" d="M895.481 888.925 L905.029 888.925 L905.029 855.968 L894.642 858.051 L894.642 852.727 L904.971 850.644 L910.816 850.644 L910.816 888.925 L920.365 888.925 L920.365 893.844 L895.481 893.844 L895.481 888.925 Z" fill="#000000" fill-rule="nonzero" fill-opacity="1" /><path clip-path="url(#clip680)" d="M1414.01 1198.91 L1434.41 1198.91 L1434.41 1203.83 L1406.98 1203.83 L1406.98 1198.91 Q1410.31 1195.47 1416.04 1189.68 Q1421.79 1183.86 1423.27 1182.19 Q1426.08 1179.03 1427.18 1176.86 Q1428.3 1174.66 1428.3 1172.55 Q1428.3 1169.11 1425.87 1166.94 Q1423.47 1164.77 1419.59 1164.77 Q1416.85 1164.77 1413.78 1165.72 Q1410.74 1166.68 1407.27 1168.61 L1407.27 1162.71 Q1410.8 1161.29 1413.87 1160.57 Q1416.93 1159.85 1419.48 1159.85 Q1426.19 1159.85 1430.18 1163.2 Q1434.18 1166.56 1434.18 1172.17 Q1434.18 1174.84 1433.17 1177.24 Q1432.18 1179.61 1429.55 1182.85 Q1428.82 1183.69 1424.95 1187.71 Q1421.07 1191.7 1414.01 1198.91 Z" fill="#000000" fill-rule="nonzero" fill-opacity="1" /><path clip-path="url(#clip680)" d="M1482.12 799.728 Q1486.31 800.625 1488.66 803.461 Q1491.03 806.297 1491.03 810.463 Q1491.03 816.858 1486.63 820.359 Q1482.23 823.86 1474.13 823.86 Q1471.41 823.86 1468.52 823.311 Q1465.65 822.79 1462.59 821.719 L1462.59 816.077 Q1465.02 817.495 1467.91 818.218 Q1470.8 818.941 1473.96 818.941 Q1479.45 818.941 1482.32 816.771 Q1485.21 814.601 1485.21 810.463 Q1485.21 806.644 1482.52 804.503 Q1479.86 802.333 1475.09 802.333 L1470.05 802.333 L1470.05 797.529 L1475.32 797.529 Q1479.63 797.529 1481.91 795.822 Q1484.2 794.086 1484.2 790.845 Q1484.2 787.518 1481.83 785.753 Q1479.48 783.959 1475.09 783.959 Q1472.68 783.959 1469.93 784.48 Q1467.19 785.001 1463.89 786.1 L1463.89 780.892 Q1467.21 779.966 1470.11 779.503 Q1473.03 779.04 1475.61 779.04 Q1482.26 779.04 1486.14 782.078 Q1490.02 785.087 1490.02 790.238 Q1490.02 793.826 1487.96 796.314 Q1485.91 798.774 1482.12 799.728 Z" fill="#000000" fill-rule="nonzero" fill-opacity="1" /><path clip-path="url(#clip680)" d="M1253.21 803.583 L1238.45 826.645 L1253.21 826.645 L1253.21 803.583 M1251.67 798.491 L1259.02 798.491 L1259.02 826.645 L1265.18 826.645 L1265.18 831.506 L1259.02 831.506 L1259.02 841.691 L1253.21 841.691 L1253.21 831.506 L1233.7 831.506 L1233.7 825.863 L1251.67 798.491 Z" fill="#000000" fill-rule="nonzero" fill-opacity="1" /><path clip-path="url(#clip680)" d="M1430.1 418.021 L1453.04 418.021 L1453.04 422.94 L1435.45 422.94 L1435.45 433.53 Q1436.72 433.096 1437.99 432.894 Q1439.27 432.662 1440.54 432.662 Q1447.77 432.662 1452 436.627 Q1456.22 440.591 1456.22 447.361 Q1456.22 454.335 1451.88 458.212 Q1447.54 462.06 1439.64 462.06 Q1436.92 462.06 1434.09 461.597 Q1431.28 461.134 1428.27 460.209 L1428.27 454.335 Q1430.88 455.753 1433.65 456.447 Q1436.43 457.141 1439.53 457.141 Q1444.53 457.141 1447.46 454.508 Q1450.38 451.875 1450.38 447.361 Q1450.38 442.848 1447.46 440.214 Q1444.53 437.581 1439.53 437.581 Q1437.18 437.581 1434.84 438.102 Q1432.53 438.623 1430.1 439.723 L1430.1 418.021 Z" fill="#000000" fill-rule="nonzero" fill-opacity="1" /><path clip-path="url(#clip680)" d="M1738.19 346.703 Q1734.25 346.703 1731.94 349.394 Q1729.65 352.085 1729.65 356.772 Q1729.65 361.431 1731.94 364.151 Q1734.25 366.842 1738.19 366.842 Q1742.12 366.842 1744.41 364.151 Q1746.72 361.431 1746.72 356.772 Q1746.72 352.085 1744.41 349.394 Q1742.12 346.703 1738.19 346.703 M1749.79 328.387 L1749.79 333.711 Q1747.59 332.669 1745.34 332.119 Q1743.11 331.57 1740.91 331.57 Q1735.12 331.57 1732.05 335.476 Q1729.02 339.382 1728.58 347.281 Q1730.29 344.764 1732.87 343.433 Q1735.44 342.073 1738.54 342.073 Q1745.05 342.073 1748.81 346.037 Q1752.6 349.972 1752.6 356.772 Q1752.6 363.427 1748.66 367.449 Q1744.73 371.471 1738.19 371.471 Q1730.69 371.471 1726.73 365.742 Q1722.77 359.984 1722.77 349.075 Q1722.77 338.832 1727.63 332.756 Q1732.49 326.651 1740.68 326.651 Q1742.88 326.651 1745.1 327.085 Q1747.36 327.519 1749.79 328.387 Z" fill="#000000" fill-rule="nonzero" fill-opacity="1" /><path clip-path="url(#clip680)" d="M1642.75 618.418 L1670.53 618.418 L1670.53 620.906 L1654.85 661.618 L1648.74 661.618 L1663.5 623.337 L1642.75 623.337 L1642.75 618.418 Z" fill="#000000" fill-rule="nonzero" fill-opacity="1" /><path clip-path="url(#clip680)" d="M1648.04 854.141 Q1643.87 854.141 1641.47 856.369 Q1639.09 858.597 1639.09 862.503 Q1639.09 866.409 1641.47 868.637 Q1643.87 870.865 1648.04 870.865 Q1652.2 870.865 1654.6 868.637 Q1657.01 866.38 1657.01 862.503 Q1657.01 858.597 1654.6 856.369 Q1652.23 854.141 1648.04 854.141 M1642.19 851.652 Q1638.43 850.726 1636.32 848.151 Q1634.23 845.576 1634.23 841.872 Q1634.23 836.693 1637.91 833.683 Q1641.61 830.674 1648.04 830.674 Q1654.49 830.674 1658.16 833.683 Q1661.84 836.693 1661.84 841.872 Q1661.84 845.576 1659.73 848.151 Q1657.64 850.726 1653.91 851.652 Q1658.13 852.636 1660.48 855.501 Q1662.85 858.365 1662.85 862.503 Q1662.85 868.782 1659 872.138 Q1655.18 875.495 1648.04 875.495 Q1640.89 875.495 1637.04 872.138 Q1633.22 868.782 1633.22 862.503 Q1633.22 858.365 1635.59 855.501 Q1637.97 852.636 1642.19 851.652 M1640.05 842.422 Q1640.05 845.778 1642.13 847.659 Q1644.24 849.54 1648.04 849.54 Q1651.8 849.54 1653.91 847.659 Q1656.05 845.778 1656.05 842.422 Q1656.05 839.065 1653.91 837.185 Q1651.8 835.304 1648.04 835.304 Q1644.24 835.304 1642.13 837.185 Q1640.05 839.065 1640.05 842.422 Z" fill="#000000" fill-rule="nonzero" fill-opacity="1" /><path clip-path="url(#clip680)" d="M1124.8 1015.51 L1124.8 1010.19 Q1127 1011.23 1129.26 1011.78 Q1131.51 1012.33 1133.68 1012.33 Q1139.47 1012.33 1142.51 1008.45 Q1145.57 1004.55 1146.01 996.62 Q1144.33 999.108 1141.75 1000.44 Q1139.18 1001.77 1136.05 1001.77 Q1129.57 1001.77 1125.78 997.864 Q1122.02 993.929 1122.02 987.129 Q1122.02 980.474 1125.96 976.452 Q1129.89 972.43 1136.43 972.43 Q1143.93 972.43 1147.86 978.188 Q1151.82 983.917 1151.82 994.855 Q1151.82 1005.07 1146.96 1011.17 Q1142.13 1017.25 1133.94 1017.25 Q1131.74 1017.25 1129.49 1016.82 Q1127.23 1016.38 1124.8 1015.51 M1136.43 997.198 Q1140.37 997.198 1142.65 994.507 Q1144.97 991.816 1144.97 987.129 Q1144.97 982.47 1142.65 979.78 Q1140.37 977.06 1136.43 977.06 Q1132.5 977.06 1130.18 979.78 Q1127.9 982.47 1127.9 987.129 Q1127.9 991.816 1130.18 994.507 Q1132.5 997.198 1136.43 997.198 Z" fill="#000000" fill-rule="nonzero" fill-opacity="1" /><path clip-path="url(#clip680)" d="M926.374 1354.36 L935.923 1354.36 L935.923 1321.41 L925.535 1323.49 L925.535 1318.17 L935.865 1316.08 L941.71 1316.08 L941.71 1354.36 L951.258 1354.36 L951.258 1359.28 L926.374 1359.28 L926.374 1354.36 Z" fill="#000000" fill-rule="nonzero" fill-opacity="1" /><path clip-path="url(#clip680)" d="M975.564 1319.93 Q971.05 1319.93 968.764 1324.39 Q966.507 1328.81 966.507 1337.73 Q966.507 1346.61 968.764 1351.07 Q971.05 1355.49 975.564 1355.49 Q980.107 1355.49 982.364 1351.07 Q984.649 1346.61 984.649 1337.73 Q984.649 1328.81 982.364 1324.39 Q980.107 1319.93 975.564 1319.93 M975.564 1315.3 Q982.826 1315.3 986.646 1321.06 Q990.494 1326.79 990.494 1337.73 Q990.494 1348.63 986.646 1354.39 Q982.826 1360.12 975.564 1360.12 Q968.301 1360.12 964.453 1354.39 Q960.633 1348.63 960.633 1337.73 Q960.633 1326.79 964.453 1321.06 Q968.301 1315.3 975.564 1315.3 Z" fill="#000000" fill-rule="nonzero" fill-opacity="1" /><path clip-path="url(#clip680)" d="M631.444 652.277 L640.992 652.277 L640.992 619.32 L630.604 621.404 L630.604 616.08 L640.934 613.996 L646.779 613.996 L646.779 652.277 L656.328 652.277 L656.328 657.196 L631.444 657.196 L631.444 652.277 Z" fill="#000000" fill-rule="nonzero" fill-opacity="1" /><path clip-path="url(#clip680)" d="M669.146 652.277 L678.694 652.277 L678.694 619.32 L668.307 621.404 L668.307 616.08 L678.637 613.996 L684.481 613.996 L684.481 652.277 L694.03 652.277 L694.03 657.196 L669.146 657.196 L669.146 652.277 Z" fill="#000000" fill-rule="nonzero" fill-opacity="1" /><path clip-path="url(#clip680)" d="M1197.29 541.407 L1206.84 541.407 L1206.84 508.45 L1196.45 510.533 L1196.45 505.209 L1206.78 503.126 L1212.62 503.126 L1212.62 541.407 L1222.17 541.407 L1222.17 546.326 L1197.29 546.326 L1197.29 541.407 Z" fill="#000000" fill-rule="nonzero" fill-opacity="1" /><path clip-path="url(#clip680)" d="M1239.01 541.407 L1259.41 541.407 L1259.41 546.326 L1231.98 546.326 L1231.98 541.407 Q1235.31 537.964 1241.04 532.177 Q1246.8 526.361 1248.27 524.683 Q1251.08 521.529 1252.18 519.359 Q1253.31 517.16 1253.31 515.047 Q1253.31 511.604 1250.88 509.434 Q1248.47 507.264 1244.6 507.264 Q1241.85 507.264 1238.78 508.219 Q1235.74 509.174 1232.27 511.112 L1232.27 505.209 Q1235.8 503.792 1238.87 503.068 Q1241.94 502.345 1244.48 502.345 Q1251.19 502.345 1255.19 505.701 Q1259.18 509.058 1259.18 514.671 Q1259.18 517.333 1258.17 519.735 Q1257.18 522.107 1254.55 525.348 Q1253.83 526.187 1249.95 530.209 Q1246.07 534.202 1239.01 541.407 Z" fill="#000000" fill-rule="nonzero" fill-opacity="1" /><path clip-path="url(#clip680)" d="M1204.29 278.998 L1213.84 278.998 L1213.84 246.041 L1203.45 248.125 L1203.45 242.801 L1213.78 240.717 L1219.63 240.717 L1219.63 278.998 L1229.18 278.998 L1229.18 283.917 L1204.29 283.917 L1204.29 278.998 Z" fill="#000000" fill-rule="nonzero" fill-opacity="1" /><path clip-path="url(#clip680)" d="M1258.69 260.625 Q1262.89 261.521 1265.23 264.357 Q1267.6 267.193 1267.6 271.359 Q1267.6 277.754 1263.2 281.255 Q1258.81 284.756 1250.7 284.756 Q1247.98 284.756 1245.09 284.207 Q1242.23 283.686 1239.16 282.615 L1239.16 276.973 Q1241.59 278.391 1244.48 279.114 Q1247.38 279.837 1250.53 279.837 Q1256.03 279.837 1258.89 277.667 Q1261.79 275.497 1261.79 271.359 Q1261.79 267.54 1259.1 265.399 Q1256.43 263.229 1251.66 263.229 L1246.62 263.229 L1246.62 258.425 L1251.89 258.425 Q1256.2 258.425 1258.49 256.718 Q1260.77 254.982 1260.77 251.741 Q1260.77 248.414 1258.4 246.649 Q1256.06 244.855 1251.66 244.855 Q1249.26 244.855 1246.51 245.376 Q1243.76 245.897 1240.46 246.996 L1240.46 241.788 Q1243.79 240.862 1246.68 240.399 Q1249.61 239.936 1252.18 239.936 Q1258.84 239.936 1262.71 242.974 Q1266.59 245.983 1266.59 251.134 Q1266.59 254.722 1264.54 257.21 Q1262.48 259.67 1258.69 260.625 Z" fill="#000000" fill-rule="nonzero" fill-opacity="1" /><path clip-path="url(#clip680)" d="M1038.04 643.911 L1047.59 643.911 L1047.59 610.954 L1037.2 613.037 L1037.2 607.713 L1047.53 605.63 L1053.38 605.63 L1053.38 643.911 L1062.93 643.911 L1062.93 648.83 L1038.04 648.83 L1038.04 643.911 Z" fill="#000000" fill-rule="nonzero" fill-opacity="1" /><path clip-path="url(#clip680)" d="M1090.79 610.722 L1076.03 633.783 L1090.79 633.783 L1090.79 610.722 M1089.26 605.63 L1096.61 605.63 L1096.61 633.783 L1102.77 633.783 L1102.77 638.645 L1096.61 638.645 L1096.61 648.83 L1090.79 648.83 L1090.79 638.645 L1071.29 638.645 L1071.29 633.002 L1089.26 605.63 Z" fill="#000000" fill-rule="nonzero" fill-opacity="1" /><path clip-path="url(#clip680)" d="M882.88 468.127 L892.428 468.127 L892.428 435.17 L882.041 437.254 L882.041 431.93 L892.371 429.846 L898.215 429.846 L898.215 468.127 L907.764 468.127 L907.764 473.046 L882.88 473.046 L882.88 468.127 Z" fill="#000000" fill-rule="nonzero" fill-opacity="1" /><path clip-path="url(#clip680)" d="M919.627 429.846 L942.573 429.846 L942.573 434.765 L924.98 434.765 L924.98 445.355 Q926.254 444.921 927.527 444.719 Q928.8 444.487 930.073 444.487 Q937.307 444.487 941.531 448.451 Q945.756 452.416 945.756 459.186 Q945.756 466.16 941.415 470.037 Q937.075 473.885 929.176 473.885 Q926.456 473.885 923.62 473.422 Q920.814 472.959 917.805 472.034 L917.805 466.16 Q920.409 467.578 923.186 468.272 Q925.964 468.966 929.06 468.966 Q934.066 468.966 936.988 466.333 Q939.911 463.7 939.911 459.186 Q939.911 454.672 936.988 452.039 Q934.066 449.406 929.06 449.406 Q926.716 449.406 924.373 449.927 Q922.058 450.448 919.627 451.548 L919.627 429.846 Z" fill="#000000" fill-rule="nonzero" fill-opacity="1" /></svg>
